<svg width="17" height="17" viewBox="0 0 17 17" fill="none" xmlns="http://www.w3.org/2000/svg">
<path fill-rule="evenodd" clip-rule="evenodd" d="M12.0313 4.88134C11.7579 4.88134 11.5313 4.65467 11.5313 4.38134V3.56534C11.0153 3.548 10.4093 3.548 9.69792 3.548H8.36458C7.65258 3.548 7.04725 3.548 6.53125 3.56534V4.38134C6.53125 4.65467 6.30458 4.88134 6.03125 4.88134C5.75792 4.88134 5.53125 4.65467 5.53125 4.38134V3.63734C4.90125 3.71934 4.46858 3.87734 4.16458 4.18134C3.76325 4.58267 3.61658 5.208 3.56258 6.21467H14.4999C14.4459 5.208 14.2986 4.58267 13.8979 4.18134C13.5939 3.87734 13.1613 3.71934 12.5313 3.63734V4.38134C12.5313 4.65467 12.3046 4.88134 12.0313 4.88134ZM14.5273 7.21467C14.5308 7.56711 14.5321 7.956 14.5312 8.38134V9.048C14.5312 9.32134 14.7579 9.548 15.0312 9.548C15.3046 9.548 15.5312 9.32134 15.5312 9.048V8.38134C15.5312 5.728 15.5313 4.40134 14.6046 3.47467C14.0899 2.96 13.4513 2.73134 12.5313 2.62934V2.048C12.5313 1.77467 12.3046 1.548 12.0313 1.548C11.7579 1.548 11.5313 1.77467 11.5313 2.048V2.56467C11.0006 2.548 10.3946 2.548 9.69792 2.548H8.36458C7.66725 2.548 7.06192 2.548 6.53125 2.56467V2.048C6.53125 1.77467 6.30458 1.548 6.03125 1.548C5.75792 1.548 5.53125 1.77467 5.53125 2.048V2.62934C4.61125 2.73134 3.97258 2.96 3.45792 3.47467C2.53125 4.40134 2.53125 5.73467 2.53125 8.38134V9.71467C2.53125 12.368 2.53125 13.6947 3.45792 14.6213C4.38458 15.548 5.71125 15.548 8.36458 15.548C8.63792 15.548 8.86458 15.3213 8.86458 15.048C8.86458 14.7747 8.63792 14.548 8.36458 14.548C5.99125 14.548 4.79792 14.548 4.16458 13.9147C3.53125 13.2813 3.53125 12.088 3.53125 9.71467V8.38134C3.53081 7.95645 3.53192 7.56756 3.53458 7.21467H14.5273ZM12.3646 15.8813C10.6179 15.8813 9.19792 14.4613 9.19792 12.7147C9.19792 10.968 10.6179 9.548 12.3646 9.548C14.1113 9.548 15.5312 10.968 15.5312 12.7147C15.5312 14.4613 14.1113 15.8813 12.3646 15.8813ZM12.3646 10.548C11.1713 10.548 10.1979 11.5213 10.1979 12.7147C10.1979 13.908 11.1713 14.8813 12.3646 14.8813C13.5579 14.8813 14.5312 13.908 14.5312 12.7147C14.5312 11.5213 13.5579 10.548 12.3646 10.548ZM12.6779 13.7347C12.7779 13.8347 12.9046 13.8813 13.0313 13.8813C13.1579 13.8813 13.2846 13.8347 13.3846 13.7347C13.5779 13.5413 13.5779 13.2213 13.3846 13.028L12.8646 12.508V11.3813C12.8646 11.108 12.6379 10.8813 12.3646 10.8813C12.0913 10.8813 11.8646 11.108 11.8646 11.3813V12.7147C11.8646 12.848 11.9179 12.9747 12.0113 13.068L12.6779 13.7347Z" fill="#575757"/>
</svg>
