<svg width="19" height="18" viewBox="0 0 19 18" fill="none" xmlns="http://www.w3.org/2000/svg">
<mask id="mask0_40003316_3506" style="mask-type:luminance" maskUnits="userSpaceOnUse" x="0" y="0" width="19" height="18">
<path d="M13.9446 1V4.55556M5.05566 1V4.55556" stroke="white" stroke-width="1.2" stroke-linecap="round"/>
<path d="M1.5 7.22223C1.5 5.54578 1.5 4.70845 2.02089 4.18756C2.54178 3.66667 3.37911 3.66667 5.05556 3.66667H13.9444C15.6209 3.66667 16.4582 3.66667 16.9791 4.18756C17.5 4.70845 17.5 5.54578 17.5 7.22223V8.11112H1.5V7.22223Z" stroke="white" stroke-width="1.2"/>
<path d="M15.7222 3.66667H3.27778C2.29594 3.66667 1.5 4.46261 1.5 5.44445V15.2222C1.5 16.2041 2.29594 17 3.27778 17H15.7222C16.7041 17 17.5 16.2041 17.5 15.2222V5.44445C17.5 4.46261 16.7041 3.66667 15.7222 3.66667Z" stroke="white" stroke-width="1.2"/>
<path d="M4.16699 11.6667H7.72255M11.2781 11.6667H14.8337M4.16699 14.3333H7.72255M11.2781 14.3333H14.8337" stroke="#C0C0C0" stroke-opacity="0.25" stroke-width="1.2" stroke-linecap="round"/>
</mask>
<g mask="url(#mask0_40003316_3506)">
<path d="M-1.16699 -1.66667H20.1663V19.6667H-1.16699V-1.66667Z" fill="#575757"/>
</g>
</svg>
