<svg width="17" height="17" viewBox="0 0 17 17" fill="none" xmlns="http://www.w3.org/2000/svg">
<path d="M14.5 1.5H8.5C8.23478 1.5 7.98043 1.60536 7.79289 1.79289C7.60536 1.98043 7.5 2.23478 7.5 2.5V7.5H2.5C2.23478 7.5 1.98043 7.60536 1.79289 7.79289C1.60536 7.98043 1.5 8.23478 1.5 8.5V15.5H15.5V2.5C15.5 2.23478 15.3946 1.98043 15.2071 1.79289C15.0196 1.60536 14.7652 1.5 14.5 1.5ZM5 14.5V11H7V14.5H5ZM14.5 14.5H8V10.5C8 10.3674 7.94732 10.2402 7.85355 10.1464C7.75979 10.0527 7.63261 10 7.5 10H4.5C4.36739 10 4.24021 10.0527 4.14645 10.1464C4.05268 10.2402 4 10.3674 4 10.5V14.5H2.5V8.5H8.5V2.5H14.5V14.5Z" fill="#575757"/>
<path d="M9.5 4.5H10.5V5.5H9.5V4.5ZM12.5 4.5H13.5V5.5H12.5V4.5ZM9.5 7.5H10.5V8.5H9.5V7.5ZM12.5 7.5H13.5V8.5H12.5V7.5ZM9.5 10.5H10.5V11.5H9.5V10.5ZM12.5 10.5H13.5V11.5H12.5V10.5Z" fill="#575757"/>
</svg>
