<svg width="25" height="24" viewBox="0 0 25 24" fill="none" xmlns="http://www.w3.org/2000/svg">
<path d="M12.5 2.99999C10.6435 2.99999 8.86301 3.73749 7.55025 5.05025C6.2375 6.363 5.5 8.14348 5.5 9.99999C5.5 12.862 7.282 15.623 9.238 17.762C10.2381 18.8516 11.3294 19.8539 12.5 20.758C12.6747 20.624 12.8797 20.4607 13.115 20.268C14.0548 19.4963 14.9393 18.6595 15.762 17.764C17.718 15.623 19.5 12.863 19.5 9.99999C19.5 8.14348 18.7625 6.363 17.4497 5.05025C16.137 3.73749 14.3565 2.99999 12.5 2.99999ZM12.5 23.214L11.933 22.824L11.93 22.822L11.924 22.817L11.904 22.803L11.829 22.75L11.559 22.553C10.1909 21.5248 8.91988 20.3733 7.762 19.113C5.718 16.875 3.5 13.636 3.5 9.99899C3.5 7.61204 4.44821 5.32286 6.13604 3.63503C7.82387 1.9472 10.1131 0.998993 12.5 0.998993C14.8869 0.998993 17.1761 1.9472 18.864 3.63503C20.5518 5.32286 21.5 7.61204 21.5 9.99899C21.5 13.636 19.282 16.876 17.238 19.111C16.0804 20.3712 14.8098 21.5227 13.442 22.551C13.3281 22.6361 13.213 22.7198 13.097 22.802L13.076 22.816L13.07 22.821L13.068 22.822L12.5 23.214ZM12.5 7.99999C11.9696 7.99999 11.4609 8.21071 11.0858 8.58578C10.7107 8.96085 10.5 9.46956 10.5 9.99999C10.5 10.5304 10.7107 11.0391 11.0858 11.4142C11.4609 11.7893 11.9696 12 12.5 12C13.0304 12 13.5391 11.7893 13.9142 11.4142C14.2893 11.0391 14.5 10.5304 14.5 9.99999C14.5 9.46956 14.2893 8.96085 13.9142 8.58578C13.5391 8.21071 13.0304 7.99999 12.5 7.99999ZM8.5 9.99999C8.5 8.93913 8.92143 7.92171 9.67157 7.17157C10.4217 6.42142 11.4391 5.99999 12.5 5.99999C13.5609 5.99999 14.5783 6.42142 15.3284 7.17157C16.0786 7.92171 16.5 8.93913 16.5 9.99999C16.5 11.0609 16.0786 12.0783 15.3284 12.8284C14.5783 13.5786 13.5609 14 12.5 14C11.4391 14 10.4217 13.5786 9.67157 12.8284C8.92143 12.0783 8.5 11.0609 8.5 9.99999Z" fill="#575757"/>
</svg>
