<svg width="19" height="17" viewBox="0 0 19 17" fill="none" xmlns="http://www.w3.org/2000/svg">
<path fill-rule="evenodd" clip-rule="evenodd" d="M2.79183 0.728962C3.91511 -0.38291 5.7648 -0.185345 6.70533 1.0662L7.87016 2.61363C8.63624 3.63177 8.56794 5.05423 7.65879 5.95384L7.43912 6.17254C7.41421 6.26434 7.41168 6.36074 7.43173 6.45372C7.48988 6.82863 7.80462 7.62256 9.12266 8.9274C10.4407 10.2322 11.2437 10.5447 11.6258 10.6035C11.7221 10.6228 11.8216 10.6199 11.9166 10.5952L12.2932 10.2221C13.1017 9.42269 14.3422 9.27291 15.3427 9.81415L17.1057 10.7698C18.6166 11.5858 18.9978 13.6294 17.761 14.8543L16.4494 16.1518C16.0359 16.5607 15.4803 16.9016 14.8028 16.965C13.1322 17.1203 9.23989 16.9219 5.14824 12.8723C1.3298 9.09189 0.59694 5.79487 0.503717 4.17025C0.457567 3.34875 0.847072 2.65406 1.34364 2.16337L2.79183 0.728962ZM5.59774 1.89229C5.12978 1.27019 4.25847 1.22057 3.76743 1.70667L2.31833 3.14016C2.01374 3.44156 1.86791 3.7742 1.88637 4.09214C1.96021 5.3832 2.55092 8.35769 6.12477 11.8955C9.87398 15.606 13.3361 15.7172 14.6745 15.5922C14.9477 15.5674 15.2191 15.4259 15.4729 15.175L16.7835 13.8766C17.317 13.3492 17.1998 12.388 16.4448 11.98L14.6819 11.0253C14.1945 10.7625 13.6241 10.8488 13.2697 11.1998L12.8497 11.6161L12.3605 11.1273C12.8497 11.6161 12.8488 11.617 12.8479 11.617L12.847 11.6189L12.8442 11.6216L12.8377 11.6271L12.8239 11.64C12.7849 11.676 12.7429 11.7086 12.6984 11.7374C12.6245 11.7861 12.5267 11.8403 12.4039 11.8853C12.1547 11.9782 11.8243 12.0278 11.4163 11.9653C10.6161 11.8431 9.55555 11.3 8.14613 9.90512C6.73764 8.51022 6.18753 7.46084 6.06385 6.66507C6.00016 6.25891 6.05093 5.92995 6.14508 5.68184C6.19689 5.54223 6.27108 5.4119 6.36475 5.2959L6.39428 5.26374L6.40721 5.24996L6.41274 5.24445L6.41551 5.24169L6.41736 5.23985L6.68318 4.97705C7.07823 4.58467 7.13361 3.93501 6.76164 3.43972L5.59774 1.89229Z" fill="#575757"/>
</svg>
