<svg width="38" height="38" viewBox="0 0 38 38" fill="none" xmlns="http://www.w3.org/2000/svg">
<path d="M16.2423 8.45138C16.4674 8.45061 16.6899 8.5003 16.8933 8.59679C17.0967 8.69328 17.2759 8.83411 17.4177 9.00895L24.6963 18.0506C24.9179 18.3203 25.0391 18.6585 25.0391 19.0075C25.0391 19.3566 24.9179 19.6948 24.6963 19.9644L17.1615 29.0061C16.9057 29.3138 16.5382 29.5074 16.1397 29.5441C15.7412 29.5809 15.3445 29.4578 15.0367 29.202C14.729 28.9462 14.5355 28.5787 14.4987 28.1802C14.462 27.7817 14.585 27.385 14.8408 27.0772L21.5769 19L15.0669 10.9228C14.8826 10.7016 14.7655 10.4322 14.7296 10.1466C14.6936 9.86094 14.7402 9.57097 14.8638 9.31098C14.9875 9.05099 15.183 8.83186 15.4273 8.67953C15.6716 8.52719 15.9544 8.44802 16.2423 8.45138Z" fill="black"/>
</svg>
