<svg width="38" height="38" viewBox="0 0 38 38" fill="none" xmlns="http://www.w3.org/2000/svg">
<path d="M21.7577 29.5486C21.5326 29.5494 21.3101 29.4997 21.1067 29.4032C20.9033 29.3067 20.7241 29.1659 20.5823 28.991L13.3037 19.9494C13.0821 19.6797 12.9609 19.3415 12.9609 18.9925C12.9609 18.6434 13.0821 18.3052 13.3037 18.0356L20.8385 8.99389C21.0943 8.68615 21.4618 8.49262 21.8603 8.45588C22.2588 8.41914 22.6555 8.5422 22.9633 8.79799C23.271 9.05377 23.4645 9.42133 23.5013 9.81981C23.538 10.2183 23.415 10.615 23.1592 10.9228L16.4231 19L22.9331 27.0772C23.1174 27.2984 23.2345 27.5678 23.2704 27.8534C23.3064 28.1391 23.2598 28.429 23.1362 28.689C23.0125 28.949 22.817 29.1681 22.5727 29.3205C22.3284 29.4728 22.0456 29.552 21.7577 29.5486Z" fill="black"/>
</svg>
