<svg width="52" height="50" viewBox="0 0 52 50" fill="none" xmlns="http://www.w3.org/2000/svg">
<path d="M0 24V12C0 5.37258 5.37258 0 12 0H23C23.5523 0 24 0.447716 24 1V24H0Z" fill="#0389FF"/>
<path d="M26 0H38C44.6274 0 50 5.37258 50 12V23C50 23.5523 49.5523 24 49 24H26V0Z" fill="#0389FF"/>
<path d="M24 50H12C5.37258 50 0 44.6274 0 38V27C0 26.4477 0.447716 26 1 26H24V50Z" fill="#0389FF"/>
<path d="M50 26V38C50 44.6274 44.6274 50 38 50H27C26.4477 50 26 49.5523 26 49V26H50Z" fill="#0389FF"/>
</svg>
