<svg width="46" height="47" viewBox="0 0 46 47" fill="none" xmlns="http://www.w3.org/2000/svg">
<path d="M27.714 30.0996L23 25.3856L18.286 30.0996C17.7674 30.6182 16.9189 30.6182 16.4003 30.0996C15.8818 29.5811 15.8818 28.7326 16.4003 28.214L21.1144 23.5L16.4003 18.7859C15.8818 18.2674 15.8818 17.4189 16.4003 16.9003C16.9189 16.3818 17.7674 16.3818 18.286 16.9003L23 21.6144L27.714 16.9003C28.2326 16.3818 29.0811 16.3818 29.5997 16.9003C30.1182 17.4189 30.1182 18.2674 29.5997 18.7859L24.8856 23.5L29.5997 28.214C30.1182 28.7326 30.1182 29.5811 29.5997 30.0996C29.0811 30.6182 28.2326 30.6182 27.714 30.0996Z" fill="black"/>
</svg>
