<svg width="32" height="33" viewBox="0 0 32 33" fill="none" xmlns="http://www.w3.org/2000/svg">
<path d="M23.9974 17.8333H17.3307V24.5C17.3307 25.2333 16.7307 25.8333 15.9974 25.8333C15.2641 25.8333 14.6641 25.2333 14.6641 24.5V17.8333H7.9974C7.26406 17.8333 6.66406 17.2333 6.66406 16.5C6.66406 15.7666 7.26406 15.1666 7.9974 15.1666H14.6641V8.49996C14.6641 7.76663 15.2641 7.16663 15.9974 7.16663C16.7307 7.16663 17.3307 7.76663 17.3307 8.49996V15.1666H23.9974C24.7307 15.1666 25.3307 15.7666 25.3307 16.5C25.3307 17.2333 24.7307 17.8333 23.9974 17.8333Z" fill="black"/>
</svg>
