<svg width="24" height="25" viewBox="0 0 24 25" fill="none" xmlns="http://www.w3.org/2000/svg">
<path d="M12 2.92664C17.523 2.92664 22 7.40364 22 12.9266C22 18.4496 17.523 22.9266 12 22.9266C6.477 22.9266 2 18.4496 2 12.9266C2 7.40364 6.477 2.92664 12 2.92664ZM12 4.92664C9.87827 4.92664 7.84344 5.76949 6.34315 7.26978C4.84285 8.77007 4 10.8049 4 12.9266C4 15.0484 4.84285 17.0832 6.34315 18.5835C7.84344 20.0838 9.87827 20.9266 12 20.9266C14.1217 20.9266 16.1566 20.0838 17.6569 18.5835C19.1571 17.0832 20 15.0484 20 12.9266C20 10.8049 19.1571 8.77007 17.6569 7.26978C16.1566 5.76949 14.1217 4.92664 12 4.92664ZM12 6.92664C12.2449 6.92667 12.4813 7.01659 12.6644 7.17935C12.8474 7.34211 12.9643 7.56638 12.993 7.80964L13 7.92664V12.5126L15.707 15.2196C15.8863 15.3996 15.9905 15.6411 15.9982 15.895C16.006 16.149 15.9168 16.3963 15.7488 16.5869C15.5807 16.7775 15.3464 16.8969 15.0935 16.921C14.8406 16.9451 14.588 16.872 14.387 16.7166L14.293 16.6336L11.293 13.6336C11.1376 13.4781 11.0378 13.2756 11.009 13.0576L11 12.9266V7.92664C11 7.66142 11.1054 7.40707 11.2929 7.21953C11.4804 7.03199 11.7348 6.92664 12 6.92664Z" fill="#575757"/>
</svg>
