<svg width="24" height="25" viewBox="0 0 24 25" fill="none" xmlns="http://www.w3.org/2000/svg">
<path d="M17 18.9266C17 18.3962 16.7893 17.8875 16.4142 17.5124C16.0391 17.1373 15.5304 16.9266 15 16.9266H9C8.46957 16.9266 7.96086 17.1373 7.58579 17.5124C7.21071 17.8875 7 18.3962 7 18.9266" stroke="#575757" stroke-width="2" stroke-linecap="round" stroke-linejoin="round"/>
<path d="M19 4.92664H5C3.89543 4.92664 3 5.82207 3 6.92664V20.9266C3 22.0312 3.89543 22.9266 5 22.9266H19C20.1046 22.9266 21 22.0312 21 20.9266V6.92664C21 5.82207 20.1046 4.92664 19 4.92664Z" stroke="#575757" stroke-width="2" stroke-linecap="round" stroke-linejoin="round"/>
<path d="M12 12.9266C13.1046 12.9266 14 12.0312 14 10.9266C14 9.82207 13.1046 8.92664 12 8.92664C10.8954 8.92664 10 9.82207 10 10.9266C10 12.0312 10.8954 12.9266 12 12.9266Z" stroke="#575757" stroke-width="2" stroke-linecap="round" stroke-linejoin="round"/>
<path d="M8 2.92664V4.92664" stroke="#575757" stroke-width="2" stroke-linecap="round" stroke-linejoin="round"/>
<path d="M16 2.92664V4.92664" stroke="#575757" stroke-width="2" stroke-linecap="round" stroke-linejoin="round"/>
</svg>
