<svg width="20" height="20" viewBox="0 0 20 20" fill="none" xmlns="http://www.w3.org/2000/svg">
<g clip-path="url(#clip0_40002770_666)">
<path fill-rule="evenodd" clip-rule="evenodd" d="M10.0007 19.1665C4.93804 19.1665 0.833984 15.0624 0.833984 9.99981C0.833984 4.9372 4.93804 0.833145 10.0007 0.833145C15.0633 0.833145 19.1673 4.9372 19.1673 9.99981C19.1673 15.0624 15.0633 19.1665 10.0007 19.1665ZM10.0007 17.4998C14.1428 17.4998 17.5007 14.1419 17.5007 9.99981C17.5007 5.85768 14.1428 2.49981 10.0007 2.49981C5.85852 2.49981 2.50065 5.85768 2.50065 9.99981C2.50065 14.1419 5.85852 17.4998 10.0007 17.4998ZM8.39001 13.8824C8.14538 13.7858 7.91849 13.6651 7.70934 13.5203C7.50018 13.3755 7.31811 13.2047 7.16312 13.0078C7.00812 12.811 6.88674 12.5873 6.79897 12.3366C6.7112 12.0859 6.66732 11.8083 6.66732 11.6665H8.35359C8.35359 11.7489 8.39281 11.9569 8.47124 12.1277C8.54967 12.2985 8.65891 12.4369 8.79897 12.5427C8.93903 12.6485 9.10803 12.7256 9.30597 12.7739C9.50392 12.8222 9.72427 12.8463 9.96704 12.8463C10.1837 12.8463 10.3723 12.8231 10.5329 12.7767C10.6935 12.7302 10.826 12.6662 10.9306 12.5845C11.0352 12.5028 11.1127 12.4053 11.1631 12.292C11.2135 12.1788 11.2387 12.0572 11.2387 11.9272C11.2387 11.7861 11.2182 11.6589 11.1771 11.5456C11.136 11.4323 11.0567 11.3274 10.939 11.2309C10.8214 11.1343 10.6589 11.0396 10.4516 10.9468C10.2443 10.8539 9.97638 10.7555 9.64771 10.6516C9.27423 10.5327 8.92222 10.399 8.59169 10.2505C8.26115 10.1019 7.97171 9.92647 7.72334 9.72408C7.47497 9.52168 7.2789 9.28866 7.1351 9.02499C6.99131 8.76132 6.91942 8.4531 6.91942 8.1003C6.91942 7.76236 6.99318 7.45321 7.14071 7.17283C7.28823 6.89245 7.49551 6.65385 7.76256 6.45703C8.0296 6.26021 8.34705 6.10702 8.71494 5.99747C8.86006 5.95426 9.01086 5.91956 9.16732 5.89339V5.42036C9.16732 4.95798 9.53721 4.58315 10.0007 4.58315C10.4609 4.58315 10.834 4.95077 10.834 5.4122V5.9285C10.9461 5.95386 11.0549 5.98428 11.1603 6.01975C11.5301 6.14416 11.8457 6.31777 12.1071 6.54059C12.3685 6.7634 12.5702 7.028 12.7121 7.33437C12.8541 7.64075 12.925 7.97589 12.925 8.33983H11.2443C11.2443 8.169 11.2173 8.01118 11.1631 7.86634C11.109 7.72151 11.0259 7.59711 10.9138 7.49313C10.8018 7.38915 10.6617 7.30838 10.4936 7.25081C10.3256 7.19325 10.1276 7.16447 9.89981 7.16447C9.67945 7.16447 9.48805 7.18861 9.32558 7.23689C9.16312 7.28517 9.02866 7.35201 8.92222 7.43742C8.81578 7.52284 8.73548 7.6231 8.68132 7.73823C8.62717 7.85335 8.60009 7.9759 8.60009 8.10587C8.60009 8.37325 8.73734 8.597 9.01186 8.77711C9.28637 8.95722 9.68879 9.12526 10.2191 9.28123C10.6636 9.41863 11.0548 9.57089 11.3928 9.738C11.7308 9.90512 12.0128 10.0945 12.2387 10.3062C12.4647 10.5179 12.6356 10.7555 12.7514 11.0192C12.8671 11.2829 12.925 11.5818 12.925 11.916C12.925 12.2725 12.855 12.5901 12.7149 12.8686C12.5749 13.1471 12.376 13.382 12.1183 13.5732C11.8606 13.7645 11.5497 13.9112 11.1855 14.0133C11.0724 14.045 10.9552 14.0718 10.834 14.0937V14.5862C10.834 15.0448 10.4641 15.4165 10.0007 15.4165C9.54041 15.4165 9.16732 15.0422 9.16732 14.589V14.0981C8.89141 14.0504 8.63464 13.9789 8.39001 13.8824Z" fill="#6B6B6B"/>
</g>
<defs>
<clipPath id="clip0_40002770_666">
<rect width="20" height="20" fill="white"/>
</clipPath>
</defs>
</svg>
