<svg width="29" height="25" viewBox="0 0 29 25" fill="none" xmlns="http://www.w3.org/2000/svg">
<rect width="29" height="25" rx="5" fill="white"/>
<path fill-rule="evenodd" clip-rule="evenodd" d="M18.6761 3.62805C15.5299 2.92477 12.2672 2.92477 9.12106 3.62805L8.78206 3.70305C7.89684 3.90038 7.08375 4.33952 6.43332 4.97159C5.7829 5.60365 5.32065 6.40383 5.09806 7.28305C4.30195 10.4257 4.30195 13.7173 5.09806 16.86C5.31036 17.6985 5.74083 18.4659 6.34573 19.0841C6.95063 19.7024 7.70841 20.1495 8.54206 20.38L9.00706 23.156C9.0219 23.2442 9.06011 23.3268 9.11769 23.3951C9.17528 23.4635 9.25014 23.5152 9.33448 23.5448C9.41883 23.5744 9.50957 23.5809 9.59725 23.5635C9.68494 23.5461 9.76637 23.5056 9.83306 23.446L12.5641 21.003C14.6141 21.1268 16.6714 20.9629 18.6761 20.516L19.0161 20.441C19.9013 20.2437 20.7144 19.8046 21.3648 19.1725C22.0152 18.5404 22.4775 17.7403 22.7001 16.861C23.4962 13.7183 23.4962 10.4267 22.7001 7.28405C22.4774 6.40471 22.015 5.60444 21.3644 4.97236C20.7138 4.34028 19.9005 3.90121 19.0151 3.70405L18.6761 3.62805ZM9.96506 7.20205C9.7792 7.17483 9.58964 7.21225 9.42806 7.30805H9.41406C9.03906 7.52805 8.70106 7.80505 8.41306 8.13105C8.17306 8.40805 8.04306 8.68805 8.00906 8.95805C7.98906 9.11805 8.00306 9.28005 8.05006 9.43304L8.06806 9.44305C8.33806 10.236 8.69006 10.999 9.12006 11.717C9.67476 12.7254 10.357 13.6581 11.1501 14.492L11.1741 14.526L11.2121 14.554L11.2351 14.581L11.2631 14.605C12.1 15.4004 13.0349 16.0859 14.0451 16.645C15.2001 17.274 15.9011 17.571 16.3221 17.695V17.701C16.4451 17.739 16.5571 17.756 16.6701 17.756C17.0288 17.7303 17.3684 17.5845 17.6341 17.342C17.9591 17.054 18.2341 16.715 18.4481 16.338V16.331C18.6491 15.951 18.5811 15.593 18.2911 15.35C17.709 14.8405 17.0791 14.3884 16.4101 14C15.9621 13.757 15.5071 13.904 15.3231 14.15L14.9301 14.646C14.7281 14.892 14.3621 14.858 14.3621 14.858L14.3521 14.864C11.6211 14.167 10.8921 11.402 10.8921 11.402C10.8921 11.402 10.8581 11.026 11.1111 10.834L11.6031 10.438C11.8391 10.246 12.0031 9.79205 11.7501 9.34405C11.3626 8.67547 10.9115 8.04588 10.4031 7.46405C10.2918 7.32742 10.1361 7.23431 9.96306 7.20105M14.5791 6.00005C14.4465 6.00005 14.3193 6.05272 14.2255 6.14649C14.1317 6.24026 14.0791 6.36744 14.0791 6.50005C14.0791 6.63265 14.1317 6.75983 14.2255 6.8536C14.3193 6.94737 14.4465 7.00005 14.5791 7.00005C15.8441 7.00005 16.8941 7.41305 17.7251 8.20505C18.1521 8.63805 18.4851 9.15105 18.7031 9.71305C18.9221 10.276 19.0221 10.877 18.9961 11.479C18.9933 11.5447 19.0035 11.6103 19.0261 11.672C19.0487 11.7337 19.0832 11.7904 19.1277 11.8387C19.2175 11.9365 19.3425 11.9945 19.4751 12C19.6077 12.0056 19.7371 11.9583 19.8348 11.8684C19.9325 11.7786 19.9905 11.6537 19.9961 11.521C20.0259 10.7806 19.903 10.0419 19.6351 9.35105C19.3659 8.65663 18.9559 8.02541 18.4311 7.49705L18.4211 7.48705C17.3901 6.50205 16.0851 6.00005 14.5791 6.00005ZM14.5451 7.64405C14.4125 7.64405 14.2853 7.69672 14.1915 7.79049C14.0977 7.88426 14.0451 8.01144 14.0451 8.14405C14.0451 8.27665 14.0977 8.40383 14.1915 8.4976C14.2853 8.59137 14.4125 8.64405 14.5451 8.64405H14.5621C15.4741 8.70905 16.1381 9.01305 16.6031 9.51205C17.0801 10.026 17.3271 10.665 17.3081 11.455C17.305 11.5877 17.3548 11.716 17.4464 11.812C17.538 11.9079 17.664 11.9635 17.7966 11.9665C17.9292 11.9696 18.0576 11.9198 18.1535 11.8282C18.2494 11.7366 18.305 11.6107 18.3081 11.478C18.3321 10.441 17.9981 9.54605 17.3361 8.83205V8.83005C16.6591 8.10405 15.7301 7.72005 14.6121 7.64505L14.5951 7.64305L14.5451 7.64405ZM14.5261 9.31905C14.4591 9.31314 14.3917 9.32078 14.3278 9.34151C14.2639 9.36223 14.2049 9.39562 14.1542 9.43968C14.1035 9.48374 14.0622 9.53757 14.0327 9.59794C14.0033 9.65832 13.9863 9.72401 13.9828 9.79109C13.9793 9.85818 13.9894 9.92528 14.0124 9.98839C14.0354 10.0515 14.0709 10.1093 14.1167 10.1584C14.1626 10.2075 14.2178 10.2468 14.2792 10.2741C14.3406 10.3014 14.4069 10.316 14.4741 10.317C14.8921 10.339 15.1591 10.465 15.3271 10.634C15.4961 10.804 15.6221 11.077 15.6451 11.504C15.6463 11.5711 15.6611 11.6373 15.6884 11.6986C15.7158 11.7599 15.7552 11.815 15.8043 11.8607C15.8534 11.9065 15.9113 11.9418 15.9743 11.9647C16.0374 11.9876 16.1045 11.9976 16.1715 11.994C16.2385 11.9905 16.3041 11.9735 16.3644 11.944C16.4247 11.9146 16.4785 11.8733 16.5225 11.8226C16.5665 11.7719 16.5998 11.7129 16.6206 11.6491C16.6413 11.5852 16.6489 11.5179 16.6431 11.451C16.6111 10.851 16.4231 10.321 16.0381 9.93105C15.6511 9.54105 15.1241 9.35105 14.5261 9.31905Z" fill="#0481EF"/>
</svg>
