<svg width="29" height="25" viewBox="0 0 29 25" fill="none" xmlns="http://www.w3.org/2000/svg">
<rect width="29" height="25" rx="5" fill="white"/>
<path fill-rule="evenodd" clip-rule="evenodd" d="M20 3C20.7956 3 21.5587 3.31607 22.1213 3.87868C22.6839 4.44129 23 5.20435 23 6V18C23 18.7956 22.6839 19.5587 22.1213 20.1213C21.5587 20.6839 20.7956 21 20 21H8C7.20435 21 6.44129 20.6839 5.87868 20.1213C5.31607 19.5587 5 18.7956 5 18V6C5 5.20435 5.31607 4.44129 5.87868 3.87868C6.44129 3.31607 7.20435 3 8 3H20ZM10 10C9.73478 10 9.48043 10.1054 9.29289 10.2929C9.10536 10.4804 9 10.7348 9 11V16C9 16.2652 9.10536 16.5196 9.29289 16.7071C9.48043 16.8946 9.73478 17 10 17C10.2652 17 10.5196 16.8946 10.7071 16.7071C10.8946 16.5196 11 16.2652 11 16V11C11 10.7348 10.8946 10.4804 10.7071 10.2929C10.5196 10.1054 10.2652 10 10 10ZM13 9C12.7348 9 12.4804 9.10536 12.2929 9.29289C12.1054 9.48043 12 9.73478 12 10V16C12 16.2652 12.1054 16.5196 12.2929 16.7071C12.4804 16.8946 12.7348 17 13 17C13.2652 17 13.5196 16.8946 13.7071 16.7071C13.8946 16.5196 14 16.2652 14 16V12.34C14.305 11.996 14.82 11.592 15.393 11.347C15.726 11.205 16.227 11.147 16.575 11.257C16.6904 11.2863 16.7933 11.3523 16.868 11.445C16.92 11.515 17 11.671 17 12V16C17 16.2652 17.1054 16.5196 17.2929 16.7071C17.4804 16.8946 17.7348 17 18 17C18.2652 17 18.5196 16.8946 18.7071 16.7071C18.8946 16.5196 19 16.2652 19 16V12C19 11.33 18.83 10.734 18.476 10.256C18.1503 9.82256 17.6944 9.50472 17.175 9.349C16.273 9.066 15.274 9.223 14.607 9.509C14.3935 9.60084 14.1854 9.70502 13.984 9.821C13.9421 9.59059 13.8206 9.3822 13.6408 9.23216C13.461 9.08213 13.2342 8.99996 13 9ZM10 7C9.73478 7 9.48043 7.10536 9.29289 7.29289C9.10536 7.48043 9 7.73478 9 8C9 8.26522 9.10536 8.51957 9.29289 8.70711C9.48043 8.89464 9.73478 9 10 9C10.2652 9 10.5196 8.89464 10.7071 8.70711C10.8946 8.51957 11 8.26522 11 8C11 7.73478 10.8946 7.48043 10.7071 7.29289C10.5196 7.10536 10.2652 7 10 7Z" fill="#0A66C2"/>
</svg>
