<svg width="24" height="25" viewBox="0 0 24 25" fill="none" xmlns="http://www.w3.org/2000/svg">
<g clip-path="url(#clip0_40002742_3683)">
<path d="M12 3.92663C10.1435 3.92663 8.36301 4.66413 7.05025 5.97688C5.7375 7.28964 5 9.07011 5 10.9266C5 13.7886 6.782 16.5496 8.738 18.6886C9.73814 19.7783 10.8294 20.7806 12 21.6846C12.1747 21.5506 12.3797 21.3873 12.615 21.1946C13.5548 20.4229 14.4393 19.5862 15.262 18.6906C17.218 16.5496 19 13.7896 19 10.9266C19 9.07011 18.2625 7.28964 16.9497 5.97688C15.637 4.66413 13.8565 3.92663 12 3.92663ZM12 24.1406L11.433 23.7506L11.43 23.7486L11.424 23.7436L11.404 23.7296L11.329 23.6766L11.059 23.4796C9.69086 22.4514 8.41988 21.2999 7.262 20.0396C5.218 17.8016 3 14.5626 3 10.9256C3 8.53868 3.94821 6.2495 5.63604 4.56167C7.32387 2.87384 9.61305 1.92563 12 1.92563C14.3869 1.92563 16.6761 2.87384 18.364 4.56167C20.0518 6.2495 21 8.53868 21 10.9256C21 14.5626 18.782 17.8026 16.738 20.0376C15.5804 21.2979 14.3098 22.4494 12.942 23.4776C12.8281 23.5627 12.713 23.6464 12.597 23.7286L12.576 23.7426L12.57 23.7476L12.568 23.7486L12 24.1406ZM12 8.92663C11.4696 8.92663 10.9609 9.13734 10.5858 9.51242C10.2107 9.88749 10 10.3962 10 10.9266C10 11.4571 10.2107 11.9658 10.5858 12.3408C10.9609 12.7159 11.4696 12.9266 12 12.9266C12.5304 12.9266 13.0391 12.7159 13.4142 12.3408C13.7893 11.9658 14 11.4571 14 10.9266C14 10.3962 13.7893 9.88749 13.4142 9.51242C13.0391 9.13734 12.5304 8.92663 12 8.92663ZM8 10.9266C8 9.86576 8.42143 8.84835 9.17157 8.0982C9.92172 7.34806 10.9391 6.92663 12 6.92663C13.0609 6.92663 14.0783 7.34806 14.8284 8.0982C15.5786 8.84835 16 9.86576 16 10.9266C16 11.9875 15.5786 13.0049 14.8284 13.7551C14.0783 14.5052 13.0609 14.9266 12 14.9266C10.9391 14.9266 9.92172 14.5052 9.17157 13.7551C8.42143 13.0049 8 11.9875 8 10.9266Z" fill="#575757"/>
</g>
<defs>
<clipPath id="clip0_40002742_3683">
<rect width="24" height="24" fill="white" transform="translate(0 0.926636)"/>
</clipPath>
</defs>
</svg>
