<svg width="24" height="25" viewBox="0 0 24 25" fill="none" xmlns="http://www.w3.org/2000/svg">
<path d="M17 9.92663H9V7.92663C8.99854 7.33282 9.17334 6.75193 9.50226 6.25754C9.83118 5.76314 10.2994 5.37748 10.8477 5.14939C11.3959 4.92131 11.9996 4.86106 12.5821 4.97628C13.1646 5.0915 13.6999 5.377 14.12 5.79663C14.4952 6.18126 14.764 6.65681 14.9 7.17663C14.9328 7.30401 14.9904 7.42368 15.0695 7.5288C15.1486 7.63393 15.2476 7.72244 15.3609 7.7893C15.4742 7.85616 15.5995 7.90005 15.7298 7.91847C15.86 7.93688 15.9926 7.92946 16.12 7.89663C16.2474 7.8638 16.3671 7.8062 16.4722 7.72712C16.5773 7.64805 16.6658 7.54904 16.7327 7.43575C16.7995 7.32246 16.8434 7.19711 16.8618 7.06686C16.8802 6.93662 16.8728 6.80401 16.84 6.67663C16.6117 5.81161 16.16 5.02185 15.53 4.38663C14.8302 3.689 13.9393 3.21437 12.97 3.02268C12.0006 2.83098 10.9961 2.93082 10.0835 3.30959C9.17078 3.68835 8.3908 4.32906 7.84201 5.1508C7.29321 5.97255 7.00021 6.93848 7 7.92663V9.92663C6.20435 9.92663 5.44129 10.2427 4.87868 10.8053C4.31607 11.3679 4 12.131 4 12.9266V19.9266C4 20.7223 4.31607 21.4853 4.87868 22.048C5.44129 22.6106 6.20435 22.9266 7 22.9266H17C17.7956 22.9266 18.5587 22.6106 19.1213 22.048C19.6839 21.4853 20 20.7223 20 19.9266V12.9266C20 12.131 19.6839 11.3679 19.1213 10.8053C18.5587 10.2427 17.7956 9.92663 17 9.92663ZM18 19.9266C18 20.1918 17.8946 20.4462 17.7071 20.6337C17.5196 20.8213 17.2652 20.9266 17 20.9266H7C6.73478 20.9266 6.48043 20.8213 6.29289 20.6337C6.10536 20.4462 6 20.1918 6 19.9266V12.9266C6 12.6614 6.10536 12.4071 6.29289 12.2195C6.48043 12.032 6.73478 11.9266 7 11.9266H17C17.2652 11.9266 17.5196 12.032 17.7071 12.2195C17.8946 12.4071 18 12.6614 18 12.9266V19.9266Z" fill="#575757"/>
</svg>
