<svg width="20" height="21" viewBox="0 0 20 21" fill="none" xmlns="http://www.w3.org/2000/svg">
<path d="M16.7848 19.2604H3.57994C3.059 19.2604 2.63672 18.8732 2.63672 18.3957C2.63672 16.5482 3.42158 14.8112 4.84676 13.5049C6.27196 12.1984 8.16679 11.4789 10.1823 11.4789C12.1979 11.4789 14.0927 12.1984 15.5179 13.5049C16.9431 14.8112 17.728 16.5481 17.728 18.3957C17.728 18.8732 17.3057 19.2604 16.7848 19.2604ZM4.60094 17.5312H15.7638C15.5715 16.4742 15.0272 15.5005 14.1841 14.7276C13.1152 13.7478 11.6941 13.2082 10.1824 13.2082C8.67076 13.2082 7.24962 13.7478 6.18074 14.7276H6.18071C5.33753 15.5004 4.7932 16.4742 4.60094 17.5312Z" fill="#6B6B6B"/>
<path d="M10.0793 10.6143C8.81956 10.6143 7.63531 10.1646 6.74458 9.34806C5.85388 8.53159 5.36328 7.446 5.36328 6.29123C5.36328 5.1365 5.85384 4.05094 6.74458 3.2344C7.63534 2.41793 8.81959 1.96825 10.0793 1.96825C11.339 1.96825 12.5234 2.41793 13.4141 3.23443C14.3048 4.0509 14.7953 5.1365 14.7953 6.29126C14.7953 7.44603 14.3048 8.53162 13.414 9.34813C12.5234 10.1646 11.3391 10.6143 10.0793 10.6143ZM10.0793 3.69748C9.32348 3.69748 8.6129 3.96729 8.07846 4.45719C7.54406 4.94706 7.24972 5.59843 7.24972 6.29126C7.24972 6.98413 7.54406 7.63547 8.07846 8.12537C8.6129 8.61527 9.32345 8.88508 10.0793 8.88508C10.8352 8.88508 11.5457 8.6153 12.0801 8.1254L12.0801 8.12534C12.6146 7.63547 12.9089 6.9841 12.9089 6.29126C12.9089 5.59843 12.6146 4.94706 12.0801 4.45719C11.5457 3.96726 10.8351 3.69748 10.0793 3.69748Z" fill="#6B6B6B"/>
</svg>
