<svg width="20" height="20" viewBox="0 0 20 20" fill="none" xmlns="http://www.w3.org/2000/svg">
<path d="M16.7848 18.3337H3.57994C3.059 18.3337 2.63672 17.9466 2.63672 17.4691C2.63672 15.6215 3.42158 13.8846 4.84676 12.5782C6.27196 11.2718 8.16679 10.5523 10.1823 10.5523C12.1979 10.5523 14.0927 11.2718 15.5179 12.5783C16.9431 13.8845 17.728 15.6215 17.728 17.4691C17.728 17.9466 17.3057 18.3337 16.7848 18.3337ZM4.60094 16.6045H15.7638C15.5715 15.5476 15.0272 14.5738 14.1841 13.801C13.1152 12.8212 11.6941 12.2815 10.1824 12.2815C8.67076 12.2815 7.24962 12.8212 6.18074 13.801H6.18071C5.33753 14.5738 4.7932 15.5475 4.60094 16.6045Z" fill="#6B6B6B"/>
<path d="M10.0793 9.68764C8.81956 9.68764 7.63531 9.23796 6.74458 8.42142C5.85388 7.60495 5.36328 6.51936 5.36328 5.36459C5.36328 4.20986 5.85384 3.1243 6.74458 2.30777C7.63534 1.49129 8.81959 1.04161 10.0793 1.04161C11.339 1.04161 12.5234 1.49129 13.4141 2.3078C14.3048 3.12427 14.7953 4.20986 14.7953 5.36463C14.7953 6.51939 14.3048 7.60499 13.414 8.42149C12.5234 9.23793 11.3391 9.68764 10.0793 9.68764ZM10.0793 2.77084C9.32348 2.77084 8.6129 3.04065 8.07846 3.53056C7.54406 4.02043 7.24972 4.67179 7.24972 5.36463C7.24972 6.05749 7.54406 6.70883 8.07846 7.19873C8.6129 7.68863 9.32345 7.95844 10.0793 7.95844C10.8352 7.95844 11.5457 7.68867 12.0801 7.19877L12.0801 7.1987C12.6146 6.70883 12.9089 6.05746 12.9089 5.36463C12.9089 4.67179 12.6146 4.02043 12.0801 3.53056C11.5457 3.04062 10.8351 2.77084 10.0793 2.77084Z" fill="#6B6B6B"/>
</svg>
