<svg width="32" height="37" viewBox="0 0 32 37" fill="none" xmlns="http://www.w3.org/2000/svg">
<rect x="5" y="4" width="21.3333" height="22.4643" rx="2" fill="white"/>
<path fill-rule="evenodd" clip-rule="evenodd" d="M23.3786 1.87599C18.1897 0.708004 12.8087 0.708004 7.61978 1.87599L7.06067 2.00055C5.6007 2.32827 4.2597 3.05759 3.18696 4.1073C2.11423 5.15702 1.35187 6.48593 0.984753 7.9461C-0.328251 13.1654 -0.328251 18.632 0.984753 23.8513C1.3349 25.2438 2.04486 26.5182 3.04251 27.545C4.04015 28.5718 5.28992 29.3143 6.66485 29.6972L7.43176 34.3075C7.45624 34.4539 7.51925 34.591 7.61422 34.7046C7.7092 34.8181 7.83267 34.9039 7.97177 34.9531C8.11088 35.0023 8.26053 35.013 8.40515 34.9842C8.54977 34.9553 8.68407 34.888 8.79406 34.7891L13.2982 30.7319C16.6794 30.9374 20.0724 30.6652 23.3786 29.9231L23.9393 29.7985C25.3993 29.4708 26.7403 28.7415 27.813 27.6918C28.8858 26.642 29.6481 25.3131 30.0152 23.853C31.3283 18.6337 31.3283 13.1671 30.0152 7.94776C29.648 6.48738 28.8854 5.15832 27.8123 4.10859C26.7393 3.05885 25.398 2.32966 23.9377 2.00221L23.3786 1.87599ZM9.01176 7.81158C8.70523 7.76638 8.39258 7.82853 8.1261 7.98762H8.10301C7.48454 8.35299 6.92708 8.81302 6.45209 9.35444C6.05627 9.81447 5.84186 10.2795 5.78578 10.7279C5.7528 10.9936 5.77589 11.2627 5.8534 11.5168L5.88309 11.5334C6.32839 12.8504 6.90894 14.1175 7.61813 15.31C8.53297 16.9846 9.65824 18.5335 10.9661 19.9186L11.0057 19.9751L11.0684 20.0216L11.1063 20.0664L11.1525 20.1063C12.5329 21.4271 14.0748 22.5656 15.7408 23.4942C17.6457 24.5389 18.8018 25.0321 19.4962 25.238V25.248C19.699 25.3111 19.8838 25.3393 20.0701 25.3393C20.6618 25.2966 21.2219 25.0544 21.66 24.6518C22.196 24.1735 22.6496 23.6105 23.0025 22.9844V22.9727C23.334 22.3417 23.2219 21.7471 22.7436 21.3435C21.7837 20.4972 20.7448 19.7464 19.6413 19.1015C18.9024 18.6979 18.152 18.9421 17.8486 19.3506L17.2004 20.1744C16.8672 20.5829 16.2636 20.5264 16.2636 20.5264L16.2471 20.5364C11.743 19.3788 10.5406 14.7868 10.5406 14.7868C10.5406 14.7868 10.4846 14.1624 10.9018 13.8435L11.7133 13.1858C12.1025 12.867 12.373 12.113 11.9557 11.3689C11.3167 10.2586 10.5728 9.213 9.73414 8.2467C9.5507 8.0198 9.29379 7.86517 9.00846 7.80992M16.6215 5.81533C16.4028 5.81533 16.193 5.90282 16.0384 6.05855C15.8837 6.21428 15.7969 6.42549 15.7969 6.64572C15.7969 6.86595 15.8837 7.07716 16.0384 7.23289C16.193 7.38862 16.4028 7.4761 16.6215 7.4761C18.7078 7.4761 20.4396 8.162 21.8101 9.47733C22.5144 10.1964 23.0636 11.0484 23.4231 11.9818C23.7843 12.9168 23.9492 13.9149 23.9063 14.9147C23.9018 15.0237 23.9186 15.1326 23.9559 15.2351C23.9931 15.3376 24.05 15.4317 24.1234 15.5121C24.2715 15.6743 24.4776 15.7707 24.6963 15.78C24.9151 15.7892 25.1284 15.7106 25.2896 15.5614C25.4507 15.4122 25.5464 15.2047 25.5556 14.9844C25.6048 13.7547 25.4022 12.528 24.9602 11.3806C24.5163 10.2273 23.8402 9.17899 22.9745 8.30151L22.958 8.2849C21.2576 6.64904 19.1053 5.81533 16.6215 5.81533ZM16.5654 8.54564C16.3467 8.54564 16.137 8.63313 15.9823 8.78886C15.8277 8.94458 15.7408 9.15579 15.7408 9.37603C15.7408 9.59626 15.8277 9.80747 15.9823 9.9632C16.137 10.1189 16.3467 10.2064 16.5654 10.2064H16.5935C18.0976 10.3144 19.1927 10.8192 19.9596 11.648C20.7463 12.5016 21.1537 13.5628 21.1224 14.8748C21.1173 15.0951 21.1994 15.3083 21.3505 15.4676C21.5016 15.6269 21.7093 15.7193 21.928 15.7243C22.1467 15.7294 22.3585 15.6468 22.5167 15.4946C22.6749 15.3425 22.7666 15.1333 22.7716 14.913C22.8112 13.1908 22.2604 11.7044 21.1686 10.5186V10.5153C20.052 9.30959 18.5198 8.67186 16.6759 8.5473L16.6479 8.54398L16.5654 8.54564ZM16.5341 11.3274C16.4237 11.3176 16.3125 11.3303 16.2072 11.3647C16.1018 11.3992 16.0044 11.4546 15.9207 11.5278C15.8371 11.601 15.769 11.6903 15.7204 11.7906C15.6719 11.8909 15.6439 12 15.6381 12.1114C15.6323 12.2228 15.6489 12.3342 15.6869 12.439C15.7248 12.5439 15.7834 12.6399 15.859 12.7214C15.9346 12.803 16.0258 12.8683 16.127 12.9136C16.2283 12.9588 16.3376 12.9831 16.4483 12.9849C17.1377 13.0214 17.5781 13.2307 17.8552 13.5113C18.1339 13.7937 18.3417 14.2471 18.3796 14.9562C18.3817 15.0676 18.406 15.1775 18.4511 15.2793C18.4963 15.3811 18.5613 15.4727 18.6423 15.5486C18.7233 15.6245 18.8187 15.6833 18.9227 15.7213C19.0267 15.7593 19.1373 15.7759 19.2479 15.77C19.3584 15.7641 19.4666 15.7358 19.5661 15.6869C19.6655 15.638 19.7542 15.5694 19.8267 15.4853C19.8993 15.4011 19.9543 15.3031 19.9885 15.1971C20.0227 15.0911 20.0353 14.9792 20.0256 14.8682C19.9728 13.8717 19.6628 12.9915 19.0278 12.3438C18.3895 11.6961 17.5204 11.3806 16.5341 11.3274Z" fill="#913AF4"/>
</svg>
