<svg width="22" height="22" viewBox="0 0 22 22" fill="none" xmlns="http://www.w3.org/2000/svg">
<path d="M12.0248 0.612078L15.3378 6.66651L21.3922 9.97947C21.9594 10.2889 22.1657 11.0021 21.8563 11.5693C21.7489 11.767 21.5856 11.926 21.3922 12.0334L15.3378 15.3421L12.0248 21.3922C11.7154 21.9594 11.0021 22.1657 10.4349 21.8563C10.2373 21.7489 10.0783 21.5856 9.97088 21.3922L6.66221 15.3421L0.607781 12.0291C0.0405815 11.7197 -0.165673 11.0064 0.143709 10.4392C0.251133 10.2416 0.414418 10.0826 0.607781 9.97517L6.66221 6.66221L9.97517 0.607781C10.2846 0.0405815 10.9979 -0.165673 11.5651 0.143709C11.7541 0.251133 11.9174 0.414418 12.0248 0.612078Z" fill="#0389FF"/>
</svg>
