<svg width="44" height="31" viewBox="0 0 44 31" fill="none" xmlns="http://www.w3.org/2000/svg">
<path d="M36.6666 18.2353V24.495C36.6718 25.2227 36.4583 25.9391 36.0469 26.5738C35.6355 27.2086 35.0403 27.7399 34.3199 28.1155C30.5813 30.0045 26.3295 31 22 31C17.6705 31 13.4187 30.0045 9.68008 28.1155C8.95966 27.7399 8.36453 27.2086 7.95312 26.5738C7.54171 25.9391 7.32816 25.2227 7.33343 24.495V18.2353L19.3307 22.6256C20.1758 22.9327 21.0833 23.0908 22 23.0908C22.9167 23.0908 23.8242 22.9327 24.6693 22.6256L36.6666 18.2353Z" fill="#CBD5E1"/>
<path d="M42.3121 8.15313L23.7973 0.360696C23.2283 0.122631 22.6173 0 22 0C21.3827 0 20.7717 0.122631 20.2027 0.360696L1.68789 8.15313C1.18746 8.36367 0.760475 8.7162 0.460284 9.1667C0.160093 9.61719 0 10.1457 0 10.6861C0 11.2266 0.160093 11.7551 0.460284 12.2056C0.760475 12.656 1.18746 13.0086 1.68789 13.2191L20.2027 21.0116C20.7716 21.2499 21.3827 21.3726 22 21.3726C22.6173 21.3726 23.2284 21.2499 23.7973 21.0116L42.3121 13.2191C42.8125 13.0086 43.2395 12.656 43.5397 12.2056C43.8399 11.7551 44 11.2266 44 10.6861C44 10.1457 43.8399 9.61719 43.5397 9.1667C43.2395 8.7162 42.8125 8.36367 42.3121 8.15313Z" fill="#CBD5E1"/>
</svg>
