<svg width="20" height="20" viewBox="0 0 20 20" fill="none" xmlns="http://www.w3.org/2000/svg">
<g clip-path="url(#clip0_40004993_7028)">
<path fill-rule="evenodd" clip-rule="evenodd" d="M10.0026 19.1668C4.93999 19.1668 0.835938 15.0628 0.835938 10.0002C0.835938 4.93755 4.93999 0.833496 10.0026 0.833496C15.0652 0.833496 19.1693 4.93755 19.1693 10.0002C19.1693 15.0628 15.0652 19.1668 10.0026 19.1668ZM10.0026 17.5002C14.1447 17.5002 17.5026 14.1423 17.5026 10.0002C17.5026 5.85803 14.1447 2.50016 10.0026 2.50016C5.86047 2.50016 2.5026 5.85803 2.5026 10.0002C2.5026 14.1423 5.86047 17.5002 10.0026 17.5002ZM8.39196 13.8827C8.14733 13.7862 7.92044 13.6655 7.71129 13.5207C7.50214 13.3758 7.32007 13.205 7.16507 13.0082C7.01007 12.8114 6.88869 12.5876 6.80092 12.337C6.71315 12.0863 6.66927 11.8087 6.66927 11.6668H8.35555C8.35555 11.7493 8.39476 11.9572 8.47319 12.1281C8.55162 12.2989 8.66087 12.4372 8.80092 12.5431C8.94098 12.6489 9.10998 12.726 9.30793 12.7742C9.50587 12.8225 9.72623 12.8466 9.96899 12.8466C10.1856 12.8466 10.3742 12.8234 10.5348 12.777C10.6954 12.7306 10.828 12.6665 10.9326 12.5848C11.0372 12.5031 11.1146 12.4057 11.1651 12.2924C11.2155 12.1791 11.2407 12.0575 11.2407 11.9275C11.2407 11.7864 11.2202 11.6592 11.1791 11.546C11.138 11.4327 11.0586 11.3278 10.941 11.2312C10.8233 11.1347 10.6609 11.04 10.4536 10.9471C10.2463 10.8543 9.97833 10.7559 9.64966 10.6519C9.27618 10.5331 8.92418 10.3994 8.59364 10.2508C8.26311 10.1023 7.97366 9.92682 7.72529 9.72443C7.47693 9.52204 7.28085 9.28901 7.13706 9.02534C6.99327 8.76167 6.92137 8.45345 6.92137 8.10065C6.92137 7.76271 6.99513 7.45356 7.14266 7.17318C7.29019 6.8928 7.49747 6.6542 7.76451 6.45738C8.03155 6.26056 8.34901 6.10738 8.71689 5.99782C8.86202 5.95461 9.01281 5.91991 9.16927 5.89374V5.42071C9.16927 4.95833 9.53916 4.5835 10.0026 4.5835C10.4628 4.5835 10.8359 4.95112 10.8359 5.41255V5.92885C10.9481 5.95421 11.0568 5.98463 11.1623 6.0201C11.532 6.14451 11.8476 6.31812 12.109 6.54094C12.3705 6.76376 12.5722 7.02835 12.7141 7.33472C12.856 7.6411 12.927 7.97625 12.927 8.34018H11.2463C11.2463 8.16935 11.2192 8.01153 11.1651 7.8667C11.1109 7.72186 11.0278 7.59746 10.9158 7.49348C10.8037 7.3895 10.6637 7.30873 10.4956 7.25117C10.3275 7.1936 10.1296 7.16482 9.90176 7.16482C9.68141 7.16482 9.49 7.18896 9.32753 7.23724C9.16507 7.28552 9.03062 7.35236 8.92417 7.43777C8.81773 7.52319 8.73743 7.62345 8.68328 7.73858C8.62912 7.8537 8.60204 7.97625 8.60204 8.10622C8.60204 8.3736 8.7393 8.59735 9.01381 8.77746C9.28832 8.95757 9.69074 9.12561 10.2211 9.28158C10.6655 9.41898 11.0568 9.57124 11.3948 9.73835C11.7328 9.90547 12.0147 10.0949 12.2407 10.3065C12.4667 10.5182 12.6375 10.7559 12.7533 11.0195C12.8691 11.2832 12.927 11.5822 12.927 11.9164C12.927 12.2729 12.8569 12.5904 12.7169 12.8689C12.5768 13.1474 12.378 13.3823 12.1203 13.5736C11.8625 13.7648 11.5516 13.9115 11.1875 14.0136C11.0744 14.0454 10.9572 14.0722 10.8359 14.094V14.5866C10.8359 15.0451 10.4661 15.4168 10.0026 15.4168C9.54237 15.4168 9.16927 15.0425 9.16927 14.5893V14.0984C8.89336 14.0508 8.63659 13.9793 8.39196 13.8827Z" fill="#6B6B6B"/>
</g>
<defs>
<clipPath id="clip0_40004993_7028">
<rect width="20" height="20" fill="white"/>
</clipPath>
</defs>
</svg>
