<svg width="35" height="35" viewBox="0 0 35 35" fill="none" xmlns="http://www.w3.org/2000/svg">
<g clip-path="url(#clip0_40005288_6725)">
<path d="M17.4974 13.1253C16.3371 13.1253 15.2243 13.5863 14.4038 14.4067C13.5833 15.2272 13.1224 16.34 13.1224 17.5003C13.1224 18.6606 13.5833 19.7734 14.4038 20.5939C15.2243 21.4144 16.3371 21.8753 17.4974 21.8753C18.6577 21.8753 19.7705 21.4144 20.591 20.5939C21.4115 19.7734 21.8724 18.6606 21.8724 17.5003C21.8724 16.34 21.4115 15.2272 20.591 14.4067C19.7705 13.5863 18.6577 13.1253 17.4974 13.1253ZM17.4974 10.2087C19.4313 10.2087 21.2859 10.9769 22.6534 12.3443C24.0208 13.7118 24.7891 15.5665 24.7891 17.5003C24.7891 19.4342 24.0208 21.2889 22.6534 22.6563C21.2859 24.0238 19.4313 24.792 17.4974 24.792C15.5635 24.792 13.7089 24.0238 12.3414 22.6563C10.974 21.2889 10.2057 19.4342 10.2057 17.5003C10.2057 15.5665 10.974 13.7118 12.3414 12.3443C13.7089 10.9769 15.5635 10.2087 17.4974 10.2087ZM26.9766 9.84408C26.9766 10.3275 26.7845 10.7912 26.4426 11.1331C26.1008 11.4749 25.6371 11.667 25.1536 11.667C24.6702 11.667 24.2065 11.4749 23.8646 11.1331C23.5228 10.7912 23.3307 10.3275 23.3307 9.84408C23.3307 9.36061 23.5228 8.89694 23.8646 8.55508C24.2065 8.21322 24.6702 8.02116 25.1536 8.02116C25.6371 8.02116 26.1008 8.21322 26.4426 8.55508C26.7845 8.89694 26.9766 9.36061 26.9766 9.84408ZM17.4974 5.83366C13.8895 5.83366 13.3003 5.84387 11.6218 5.91824C10.4784 5.9722 9.71135 6.12533 8.99969 6.40241C8.36677 6.64741 7.91031 6.94053 7.42469 7.42762C6.96824 7.86862 6.61729 8.40701 6.39802 9.00262C6.12094 9.7172 5.96781 10.4828 5.91531 11.6247C5.83948 13.2347 5.83073 13.7976 5.83073 17.5003C5.83073 21.1082 5.84094 21.6974 5.91531 23.3759C5.96927 24.5178 6.1224 25.2864 6.39802 25.9966C6.64594 26.6309 6.9376 27.0874 7.42177 27.5716C7.91323 28.0616 8.36969 28.3547 8.99677 28.5968C9.71719 28.8753 10.4843 29.0299 11.6218 29.0824C13.2318 29.1582 13.7947 29.167 17.4974 29.167C21.1053 29.167 21.6945 29.1568 23.373 29.0824C24.5134 29.0284 25.282 28.8753 25.9936 28.5997C26.6251 28.3532 27.0845 28.0601 27.5686 27.576C28.0601 27.0845 28.3532 26.628 28.5953 26.0009C28.8724 25.282 29.027 24.5134 29.0795 23.3759C29.1553 21.7659 29.1641 21.203 29.1641 17.5003C29.1641 13.8924 29.1539 13.3032 29.0795 11.6247C29.0255 10.4843 28.8724 9.71428 28.5953 9.00262C28.3755 8.40762 28.0252 7.86943 27.5701 7.42762C27.1293 6.97093 26.5908 6.61994 25.9951 6.40095C25.2805 6.12387 24.5134 5.97074 23.373 5.91824C21.763 5.84241 21.2001 5.83366 17.4974 5.83366ZM17.4974 2.91699C21.4597 2.91699 21.9541 2.93158 23.5086 3.00449C25.0618 3.07741 26.1191 3.32095 27.0495 3.68262C28.012 4.05303 28.8228 4.5547 29.6336 5.36408C30.3752 6.09309 30.949 6.97493 31.3151 7.94824C31.6753 8.8772 31.9203 9.93595 31.9932 11.4891C32.0618 13.0437 32.0807 13.538 32.0807 17.5003C32.0807 21.4626 32.0661 21.957 31.9932 23.5116C31.9203 25.0647 31.6753 26.122 31.3151 27.0524C30.95 28.0262 30.3761 28.9083 29.6336 29.6366C28.9044 30.3779 28.0226 30.9516 27.0495 31.318C26.1205 31.6782 25.0618 31.9232 23.5086 31.9962C21.9541 32.0647 21.4597 32.0837 17.4974 32.0837C13.5351 32.0837 13.0407 32.0691 11.4861 31.9962C9.93302 31.9232 8.87573 31.6782 7.94531 31.318C6.97162 30.9527 6.08962 30.3788 5.36115 29.6366C4.61945 28.9077 4.04563 28.0258 3.67969 27.0524C3.31802 26.1234 3.07448 25.0647 3.00156 23.5116C2.93302 21.957 2.91406 21.4626 2.91406 17.5003C2.91406 13.538 2.92865 13.0437 3.00156 11.4891C3.07448 9.93449 3.31802 8.87866 3.67969 7.94824C4.04462 6.97434 4.61857 6.09225 5.36115 5.36408C6.08983 4.62212 6.97177 4.04826 7.94531 3.68262C8.87573 3.32095 9.93156 3.07741 11.4861 3.00449C13.0407 2.93595 13.5351 2.91699 17.4974 2.91699Z" fill="#0481EF"/>
</g>
<defs>
<clipPath id="clip0_40005288_6725">
<rect width="35" height="35" fill="white"/>
</clipPath>
</defs>
</svg>
