<svg width="35" height="35" viewBox="0 0 35 35" fill="none" xmlns="http://www.w3.org/2000/svg">
<g clip-path="url(#clip0_40005288_6722)">
<path d="M20.4167 27.7083H27.7083V7.29167H7.29167V27.7083H17.5V20.4167H14.5833V17.5H17.5V15.0879C17.5 13.1381 17.7042 12.4308 18.0833 11.7177C18.4568 11.0121 19.0341 10.4354 19.74 10.0625C20.2971 9.76354 20.9898 9.58417 22.2002 9.50688C22.68 9.47625 23.3013 9.51417 24.064 9.62354V12.3944H23.3333C21.996 12.3944 21.4433 12.4571 21.1138 12.6335C20.9171 12.7347 20.757 12.8948 20.6558 13.0915C20.4808 13.421 20.4167 13.7477 20.4167 15.0865V17.5H24.0625L23.3333 20.4167H20.4167V27.7083ZM5.83333 4.375H29.1667C29.5534 4.375 29.9244 4.52865 30.1979 4.80214C30.4714 5.07563 30.625 5.44656 30.625 5.83333V29.1667C30.625 29.5534 30.4714 29.9244 30.1979 30.1979C29.9244 30.4714 29.5534 30.625 29.1667 30.625H5.83333C5.44656 30.625 5.07563 30.4714 4.80214 30.1979C4.52865 29.9244 4.375 29.5534 4.375 29.1667V5.83333C4.375 5.44656 4.52865 5.07563 4.80214 4.80214C5.07563 4.52865 5.44656 4.375 5.83333 4.375Z" fill="#0481EF"/>
</g>
<defs>
<clipPath id="clip0_40005288_6722">
<rect width="35" height="35" fill="white"/>
</clipPath>
</defs>
</svg>
