<svg width="64" height="64" viewBox="0 0 64 64" fill="none" xmlns="http://www.w3.org/2000/svg">
<rect width="64" height="64" rx="10" fill="#F2F2F2"/>
<g clip-path="url(#clip0_40004993_7017)">
<path d="M49.9994 32.8401C49.9994 31.6001 49.8794 30.3201 49.6794 29.1201H32.3594V36.2001H42.2794C41.8794 38.4801 40.5594 40.4801 38.5994 41.7601L44.5194 46.3601C47.9994 43.1201 49.9994 38.4001 49.9994 32.8401Z" fill="#4280EF"/>
<path d="M32.3609 50.76C37.3209 50.76 41.4809 49.12 44.5209 46.32L38.6009 41.76C36.9609 42.88 34.8409 43.52 32.3609 43.52C27.5609 43.52 23.5209 40.28 22.0409 35.96L15.9609 40.64C19.0809 46.84 25.4009 50.76 32.3609 50.76Z" fill="#34A353"/>
<path d="M22.0456 35.9202C21.2856 33.6402 21.2856 31.1602 22.0456 28.8802L15.9656 24.1602C13.3656 29.3602 13.3656 35.4802 15.9656 40.6402L22.0456 35.9202Z" fill="#F6B704"/>
<path d="M32.3609 21.3198C34.9609 21.2798 37.5209 22.2798 39.4009 24.0798L44.6409 18.7998C41.3209 15.6798 36.9209 13.9998 32.3609 14.0398C25.4009 14.0398 19.0809 17.9598 15.9609 24.1598L22.0409 28.8798C23.5209 24.5198 27.5609 21.3198 32.3609 21.3198Z" fill="#E54335"/>
</g>
<defs>
<clipPath id="clip0_40004993_7017">
<rect width="36" height="36.8" fill="white" transform="translate(14 14)"/>
</clipPath>
</defs>
</svg>
