<svg width="64" height="64" viewBox="0 0 64 64" fill="none" xmlns="http://www.w3.org/2000/svg">
<rect width="64" height="64" rx="10" fill="#F2F2F2"/>
<g clip-path="url(#clip0_40004993_7062)">
<path d="M44.5884 44.1115H39.352V35.9111C39.352 33.9557 39.3171 31.4384 36.6286 31.4384C33.9013 31.4384 33.484 33.5689 33.484 35.7688V44.1109H28.2477V27.2477H33.2746V29.5522H33.3449C33.848 28.6921 34.575 27.9845 35.4484 27.5048C36.3218 27.0251 37.309 26.7913 38.3047 26.8282C43.612 26.8282 44.5906 30.3191 44.5906 34.8606L44.5884 44.1115ZM22.3393 24.9426C21.7383 24.9427 21.1507 24.7646 20.651 24.4308C20.1512 24.097 19.7616 23.6225 19.5316 23.0672C19.3014 22.512 19.2412 21.9011 19.3583 21.3116C19.4754 20.7221 19.7647 20.1806 20.1897 19.7555C20.6146 19.3305 21.1559 19.041 21.7454 18.9236C22.3348 18.8063 22.9458 18.8663 23.5011 19.0962C24.0564 19.3261 24.5311 19.7155 24.8651 20.2152C25.199 20.7148 25.3774 21.3023 25.3775 21.9033C25.3775 22.3024 25.299 22.6975 25.1464 23.0662C24.9937 23.4349 24.7699 23.77 24.4878 24.0522C24.2057 24.3344 23.8708 24.5583 23.5021 24.7111C23.1335 24.8639 22.7383 24.9425 22.3393 24.9426ZM24.9575 44.1115H19.7157V27.2477H24.9575V44.1115ZM47.1989 14.0024H17.0844C16.4009 13.9947 15.7422 14.2587 15.2533 14.7363C14.7643 15.2139 14.4849 15.8662 14.4766 16.5497V46.7891C14.4846 47.473 14.7638 48.1256 15.2528 48.6038C15.7418 49.0819 16.4005 49.3464 17.0844 49.3391H47.1989C47.8841 49.3477 48.5447 49.084 49.0356 48.6059C49.5265 48.1278 49.8076 47.4743 49.8171 46.7891V16.5475C49.8073 15.8626 49.5261 15.2097 49.0352 14.732C48.5442 14.2544 47.8838 13.9912 47.1989 14.0002V14.0024Z" fill="#0A66C2"/>
</g>
<defs>
<clipPath id="clip0_40004993_7062">
<rect width="36" height="35.4545" fill="white" transform="translate(14 14)"/>
</clipPath>
</defs>
</svg>
