<svg width="64" height="48" viewBox="0 0 64 48" fill="none" xmlns="http://www.w3.org/2000/svg">
<rect width="64" height="31" rx="15.4839" fill="#0389FF"/>
<path d="M-0.00302505 48.0001V15.4839L15.0938 30.9678C6.1131 30.9678 2.19052 44.3872 -0.00302505 48.0001Z" fill="#0389FF"/>
<path d="M25.3426 20.1934H23.3826L18.9446 13.4874V20.1934H16.9846V10.4074H18.9446L23.3826 17.1274V10.4074H25.3426V20.1934ZM29.2395 12.0034V14.4534H32.5295V16.0074H29.2395V18.5974H32.9495V20.1934H27.2795V10.4074H32.9495V12.0034H29.2395ZM47.7926 10.4214L45.0626 20.1934H42.7526L40.9186 13.2354L39.0006 20.1934L36.7046 20.2074L34.0726 10.4214H36.1726L37.8946 18.0094L39.8826 10.4214H42.0666L43.9426 17.9674L45.6786 10.4214H47.7926Z" fill="white"/>
</svg>
