<svg width="20" height="21" viewBox="0 0 20 21" fill="none" xmlns="http://www.w3.org/2000/svg">
<path fill-rule="evenodd" clip-rule="evenodd" d="M11.6892 3.52455C12.1263 3.63383 12.3921 4.07677 12.2828 4.5139L9.01949 17.5672C8.91025 18.0043 8.46725 18.2701 8.03015 18.1608C7.59304 18.0516 7.32727 17.6086 7.43655 17.1715L10.6999 4.11816C10.8092 3.68104 11.2521 3.41527 11.6892 3.52455ZM5.47433 6.12646C5.82618 6.40793 5.88322 6.92134 5.60175 7.27317L2.74613 10.8427L5.60175 14.4122C5.88322 14.7641 5.82618 15.2775 5.47433 15.5589C5.1225 15.8404 4.6091 15.7833 4.32763 15.4315L1.26816 11.6071C0.910608 11.1602 0.910616 10.5252 1.26816 10.0783L4.32763 6.25388C4.6091 5.90204 5.1225 5.84499 5.47433 6.12646ZM14.2451 6.12646C14.5968 5.84499 15.1102 5.90204 15.3917 6.25388L18.4512 10.0782C18.8087 10.5252 18.8087 11.1602 18.4512 11.6071L15.3917 15.4315C15.1102 15.7833 14.5968 15.8404 14.2451 15.5589C13.8932 15.2775 13.8362 14.7641 14.1176 14.4122L16.9732 10.8427L14.1176 7.27317C13.8362 6.92134 13.8932 6.40793 14.2451 6.12646Z" fill="#6B6B6B"/>
</svg>
