<svg width="20" height="20" viewBox="0 0 20 20" fill="none" xmlns="http://www.w3.org/2000/svg">
<path d="M16.7809 18.3337H3.57603C3.0551 18.3337 2.63281 17.9465 2.63281 17.469C2.63281 15.6215 3.41768 13.8846 4.84285 12.5782C6.26806 11.2717 8.16289 10.5522 10.1784 10.5522C12.194 10.5522 14.0888 11.2717 15.514 12.5782C16.9391 13.8845 17.7241 15.6214 17.7241 17.469C17.7241 17.9465 17.3018 18.3337 16.7809 18.3337ZM4.59703 16.6045H15.7599C15.5676 15.5475 15.0233 14.5738 14.1802 13.8009C13.1113 12.8211 11.6902 12.2815 10.1785 12.2815C8.66685 12.2815 7.24572 12.8211 6.17684 13.8009H6.1768C5.33363 14.5737 4.78929 15.5475 4.59703 16.6045Z" fill="#6B6B6B"/>
<path d="M10.0832 9.68754C8.82346 9.68754 7.63921 9.23785 6.74848 8.42132C5.85779 7.60485 5.36719 6.51925 5.36719 5.36449C5.36719 4.20976 5.85775 3.1242 6.74848 2.30766C7.63925 1.49119 8.8235 1.0415 10.0832 1.0415C11.3429 1.0415 12.5273 1.49119 13.418 2.30769C14.3087 3.12416 14.7992 4.20976 14.7992 5.36452C14.7992 6.51929 14.3087 7.60488 13.4179 8.42138C12.5273 9.23782 11.343 9.68754 10.0832 9.68754ZM10.0832 2.77074C9.32739 2.77074 8.6168 3.04055 8.08236 3.53045C7.54796 4.02032 7.25362 4.67169 7.25362 5.36452C7.25362 6.05739 7.54796 6.70872 8.08236 7.19863C8.6168 7.68853 9.32735 7.95834 10.0832 7.95834C10.8391 7.95834 11.5496 7.68856 12.084 7.19866L12.084 7.19859C12.6185 6.70872 12.9128 6.05735 12.9128 5.36452C12.9128 4.67169 12.6185 4.02032 12.084 3.53045C11.5496 3.04051 10.839 2.77074 10.0832 2.77074Z" fill="#6B6B6B"/>
</svg>
