<svg width="293" height="77" viewBox="0 0 293 77" fill="none" xmlns="http://www.w3.org/2000/svg">
<path d="M61.6493 0H14.5419C6.51063 0 0 6.51062 0 14.5419V61.6493C0 69.6805 6.51063 76.1912 14.5419 76.1912H61.6493C69.6805 76.1912 76.1912 69.6805 76.1912 61.6493V14.5419C76.1912 6.51062 69.6805 0 61.6493 0Z" fill="#0389FF"/>
<path d="M65.6644 36.8703C65.6691 38.6549 65.3631 40.4268 64.76 42.1064C64.1872 43.7337 63.36 45.2599 62.3093 46.6282C61.2512 47.9914 60.0164 49.2079 58.6376 50.2456C57.2385 51.319 55.7215 52.2293 54.1159 52.9586C52.5045 53.6817 50.8183 54.2246 49.0877 54.5774C46.5885 55.0725 44.0245 55.1489 41.5002 54.8035C40.3673 54.6568 39.2482 54.4179 38.1542 54.089C38.0276 54.089 37.8919 53.9986 37.8829 53.8449C37.8738 53.6911 37.9823 53.6097 38.0637 53.5193C38.8169 52.7511 39.5093 51.9257 40.1347 51.0504C41.4375 49.2658 42.4733 47.3008 43.2095 45.2174C43.5723 44.1836 43.8505 43.122 44.0415 42.0431C44.2128 40.9632 44.3035 39.8719 44.3128 38.7785C44.3128 38.5705 44.3128 38.3625 44.3128 38.1545L46.6008 39.1764C46.9375 39.3266 47.3004 39.409 47.669 39.419C48.0375 39.4289 48.4044 39.3662 48.7487 39.2344C49.093 39.1025 49.408 38.9042 49.6756 38.6506C49.9433 38.397 50.1583 38.0932 50.3086 37.7565C50.4588 37.4199 50.5413 37.0569 50.5512 36.6883C50.5612 36.3198 50.4984 35.9529 50.3666 35.6086C50.2347 35.2643 50.0364 34.9493 49.7828 34.6817C49.5292 34.414 49.2254 34.199 48.8888 34.0487L46.7726 33.1444L42.5041 31.1819C41.8391 30.8909 41.0873 30.8682 40.406 31.1186L33.8043 33.5965C33.2715 33.7974 32.8128 34.1562 32.4896 34.6249C32.1663 35.0936 31.994 35.6498 31.9956 36.2191C31.9941 36.5561 32.0555 36.8904 32.1764 37.2049C32.305 37.551 32.5009 37.8681 32.7528 38.138C33.0047 38.408 33.3075 38.6253 33.6439 38.7775C33.9802 38.9297 34.3434 39.0137 34.7124 39.0248C35.0814 39.0358 35.449 38.9736 35.7938 38.8418L37.9823 37.9826C37.9823 37.9826 37.9823 38.064 37.9823 38.1092C38.1214 39.5076 38.0789 40.918 37.8557 42.3054C37.2627 45.9577 35.4165 49.2895 32.6341 51.7286C29.8518 54.1677 26.3069 55.5619 22.6085 55.6716C19.7003 55.6316 16.9019 54.5547 14.7172 52.6347C12.5325 50.7148 11.105 48.078 10.6917 45.199C10.2784 42.3201 10.9065 39.3882 12.4628 36.9311C14.0191 34.4741 16.4015 32.6535 19.181 31.7969C19.2875 31.7652 19.3806 31.6993 19.446 31.6094C19.5114 31.5195 19.5454 31.4106 19.5427 31.2995C19.5152 28.6149 20.3523 25.9927 21.9302 23.8206C23.0871 22.237 24.596 20.9438 26.338 20.043C28.08 19.1421 30.0075 18.6583 31.9684 18.6296H32.4387C34.1579 18.6802 35.8482 19.0845 37.4041 19.8173C38.9601 20.5502 40.3483 21.5958 41.4822 22.8891C41.5587 22.972 41.6603 23.0275 41.7713 23.0471C41.8824 23.0667 41.9969 23.0493 42.0971 22.9976C44.513 21.6913 47.2255 21.0316 49.9715 21.0824C52.7175 21.1333 55.4037 21.8931 57.7695 23.288C60.1353 24.6829 62.1005 26.6657 63.4742 29.0439C64.848 31.422 65.5837 34.1149 65.6101 36.8612L65.6644 36.8703Z" fill="white"/>
<path d="M93.3454 49.3999V31.4472H86.2654V27.2751H105.546V31.4472H98.4657V49.3999H93.3454Z" fill="white"/>
<path d="M117.519 49.3999V46.0812L117.203 45.3542V39.4121C117.203 38.3586 116.876 37.5368 116.223 36.9468C115.591 36.3568 114.611 36.0618 113.284 36.0618C112.378 36.0618 111.482 36.2093 110.597 36.5043C109.733 36.7782 108.996 37.1575 108.385 37.6421L106.615 34.197C107.542 33.5438 108.658 33.0381 109.965 32.6799C111.271 32.3216 112.599 32.1425 113.947 32.1425C116.539 32.1425 118.551 32.7536 119.984 33.9757C121.417 35.1979 122.134 37.1048 122.134 39.6966V49.3999H117.519ZM112.335 49.6528C111.008 49.6528 109.87 49.4315 108.922 48.989C107.974 48.5255 107.247 47.9038 106.741 47.1242C106.235 46.3446 105.982 45.4701 105.982 44.5008C105.982 43.4894 106.225 42.6044 106.709 41.8459C107.215 41.0873 108.005 40.4973 109.08 40.0759C110.155 39.6334 111.556 39.4121 113.284 39.4121H117.803V42.2884H113.821C112.662 42.2884 111.861 42.478 111.419 42.8573C110.997 43.2366 110.787 43.7107 110.787 44.2796C110.787 44.9117 111.029 45.4174 111.514 45.7967C112.019 46.1549 112.704 46.334 113.568 46.334C114.39 46.334 115.127 46.1444 115.781 45.7651C116.434 45.3648 116.908 44.7853 117.203 44.0267L117.961 46.3024C117.603 47.3981 116.95 48.2305 116.002 48.7994C115.054 49.3683 113.831 49.6528 112.335 49.6528Z" fill="white"/>
<path d="M126.596 49.3999V25.9476H131.527V49.3999H126.596Z" fill="white"/>
<path d="M144.542 49.6528C142.603 49.6528 140.897 49.2735 139.422 48.5149C137.968 47.7564 136.84 46.7239 136.04 45.4174C135.239 44.0899 134.839 42.5834 134.839 40.8977C134.839 39.1909 135.228 37.6843 136.008 36.3779C136.809 35.0504 137.894 34.0179 139.264 33.2804C140.633 32.5218 142.182 32.1425 143.91 32.1425C145.574 32.1425 147.07 32.5008 148.398 33.2172C149.746 33.9125 150.811 34.924 151.59 36.2514C152.37 37.5579 152.76 39.1277 152.76 40.9609C152.76 41.1505 152.749 41.3718 152.728 41.6246C152.707 41.8564 152.686 42.0776 152.665 42.2884H138.853V39.4121H150.073L148.177 40.2655C148.177 39.3805 147.998 38.6114 147.639 37.9582C147.281 37.305 146.786 36.7993 146.154 36.4411C145.522 36.0618 144.784 35.8722 143.941 35.8722C143.098 35.8722 142.35 36.0618 141.697 36.4411C141.065 36.7993 140.57 37.3155 140.212 37.9898C139.854 38.643 139.674 39.4227 139.674 40.3287V41.0873C139.674 42.0144 139.875 42.8362 140.275 43.5526C140.696 44.248 141.276 44.7853 142.013 45.1646C142.772 45.5228 143.657 45.7019 144.668 45.7019C145.574 45.7019 146.365 45.5649 147.039 45.291C147.734 45.0171 148.366 44.6062 148.935 44.0583L151.559 46.903C150.779 47.788 149.799 48.4728 148.619 48.9574C147.439 49.421 146.08 49.6528 144.542 49.6528Z" fill="white"/>
<path d="M166.378 32.1425C167.726 32.1425 168.927 32.4165 169.981 32.9643C171.056 33.4911 171.898 34.3129 172.51 35.4297C173.121 36.5254 173.426 37.9371 173.426 39.665V49.3999H168.495V40.4236C168.495 39.0539 168.19 38.0425 167.579 37.3893C166.989 36.7361 166.146 36.4095 165.05 36.4095C164.271 36.4095 163.565 36.578 162.933 36.9152C162.322 37.2313 161.837 37.7264 161.479 38.4007C161.142 39.075 160.973 39.9389 160.973 40.9925V49.3999H156.042V32.3954H160.752V37.1048L159.867 35.6825C160.478 34.5447 161.352 33.6702 162.49 33.0591C163.628 32.4481 164.924 32.1425 166.378 32.1425Z" fill="white"/>
<path d="M184.849 49.6528C182.847 49.6528 181.288 49.1471 180.171 48.1356C179.054 47.1031 178.496 45.5755 178.496 43.5526V28.6342H183.427V43.4894C183.427 44.2058 183.616 44.7642 183.996 45.1646C184.375 45.5439 184.891 45.7335 185.544 45.7335C186.324 45.7335 186.988 45.5228 187.536 45.1014L188.863 48.5781C188.357 48.9363 187.746 49.2103 187.03 49.3999C186.335 49.5685 185.608 49.6528 184.849 49.6528ZM175.873 36.5675V32.7747H187.662V36.5675H175.873Z" fill="white"/>
<path d="M211.518 49.7792C209.811 49.7792 208.22 49.5053 206.745 48.9574C205.292 48.3885 204.027 47.5878 202.953 46.5553C201.878 45.5228 201.035 44.3112 200.424 42.9205C199.834 41.5298 199.539 40.0021 199.539 38.3375C199.539 36.6729 199.834 35.1452 200.424 33.7545C201.035 32.3638 201.878 31.1522 202.953 30.1197C204.048 29.0872 205.323 28.297 206.777 27.7492C208.231 27.1803 209.822 26.8958 211.55 26.8958C213.467 26.8958 215.195 27.2329 216.733 27.9072C218.293 28.5604 219.599 29.5297 220.653 30.8151L217.365 33.8493C216.607 32.9854 215.764 32.3427 214.837 31.9213C213.91 31.4788 212.898 31.2575 211.803 31.2575C210.77 31.2575 209.822 31.4261 208.958 31.7633C208.094 32.1004 207.346 32.585 206.714 33.2172C206.082 33.8493 205.587 34.5973 205.228 35.4613C204.891 36.3252 204.723 37.2839 204.723 38.3375C204.723 39.3911 204.891 40.3498 205.228 41.2137C205.587 42.0776 206.082 42.8257 206.714 43.4578C207.346 44.09 208.094 44.5746 208.958 44.9117C209.822 45.2489 210.77 45.4174 211.803 45.4174C212.898 45.4174 213.91 45.2067 214.837 44.7853C215.764 44.3428 216.607 43.6791 217.365 42.7941L220.653 45.8283C219.599 47.1137 218.293 48.0935 216.733 48.7678C215.195 49.4421 213.457 49.7792 211.518 49.7792Z" fill="white"/>
<path d="M223.763 49.3999V25.9476H228.693V49.3999H223.763Z" fill="white"/>
<path d="M241.361 49.6528C239.549 49.6528 237.937 49.2735 236.525 48.5149C235.134 47.7564 234.028 46.7239 233.206 45.4174C232.405 44.0899 232.005 42.5834 232.005 40.8977C232.005 39.1909 232.405 37.6843 233.206 36.3779C234.028 35.0504 235.134 34.0179 236.525 33.2804C237.937 32.5218 239.549 32.1425 241.361 32.1425C243.152 32.1425 244.753 32.5218 246.165 33.2804C247.577 34.0179 248.683 35.0398 249.484 36.3463C250.284 37.6527 250.685 39.1698 250.685 40.8977C250.685 42.5834 250.284 44.0899 249.484 45.4174C248.683 46.7239 247.577 47.7564 246.165 48.5149C244.753 49.2735 243.152 49.6528 241.361 49.6528ZM241.361 45.6071C242.183 45.6071 242.92 45.4174 243.573 45.0382C244.226 44.6589 244.743 44.1216 245.122 43.4262C245.501 42.7098 245.691 41.8669 245.691 40.8977C245.691 39.9073 245.501 39.0645 245.122 38.3691C244.743 37.6737 244.226 37.1364 243.573 36.7571C242.92 36.3779 242.183 36.1882 241.361 36.1882C240.539 36.1882 239.801 36.3779 239.148 36.7571C238.495 37.1364 237.968 37.6737 237.568 38.3691C237.189 39.0645 236.999 39.9073 236.999 40.8977C236.999 41.8669 237.189 42.7098 237.568 43.4262C237.968 44.1216 238.495 44.6589 239.148 45.0382C239.801 45.4174 240.539 45.6071 241.361 45.6071Z" fill="white"/>
<path d="M261.155 49.6528C259.744 49.6528 258.479 49.3788 257.362 48.831C256.267 48.2831 255.413 47.4508 254.802 46.334C254.191 45.1962 253.886 43.7528 253.886 42.0039V32.3954H258.816V41.2769C258.816 42.6887 259.111 43.7317 259.701 44.406C260.312 45.0592 261.166 45.3858 262.262 45.3858C263.02 45.3858 263.694 45.2278 264.284 44.9117C264.874 44.5746 265.338 44.0689 265.675 43.3946C266.012 42.6992 266.181 41.8353 266.181 40.8028V32.3954H271.111V49.3999H266.434V44.7221L267.287 46.0812C266.718 47.2612 265.875 48.1567 264.758 48.7678C263.663 49.3578 262.462 49.6528 261.155 49.6528Z" fill="white"/>
<path d="M282.981 49.6528C281.379 49.6528 279.936 49.2946 278.65 48.5781C277.365 47.8406 276.343 46.8187 275.585 45.5123C274.847 44.2058 274.478 42.6676 274.478 40.8977C274.478 39.1066 274.847 37.5579 275.585 36.2514C276.343 34.945 277.365 33.9336 278.65 33.2172C279.936 32.5008 281.379 32.1425 282.981 32.1425C284.413 32.1425 285.667 32.4586 286.742 33.0907C287.816 33.7229 288.649 34.6816 289.239 35.967C289.829 37.2523 290.124 38.8959 290.124 40.8977C290.124 42.8784 289.839 44.5219 289.27 45.8283C288.701 47.1137 287.88 48.0724 286.805 48.7046C285.751 49.3367 284.477 49.6528 282.981 49.6528ZM283.834 45.6071C284.635 45.6071 285.362 45.4174 286.015 45.0382C286.668 44.6589 287.184 44.1216 287.564 43.4262C287.964 42.7098 288.164 41.8669 288.164 40.8977C288.164 39.9073 287.964 39.0645 287.564 38.3691C287.184 37.6737 286.668 37.1364 286.015 36.7571C285.362 36.3779 284.635 36.1882 283.834 36.1882C283.012 36.1882 282.275 36.3779 281.622 36.7571C280.968 37.1364 280.442 37.6737 280.041 38.3691C279.662 39.0645 279.472 39.9073 279.472 40.8977C279.472 41.8669 279.662 42.7098 280.041 43.4262C280.442 44.1216 280.968 44.6589 281.622 45.0382C282.275 45.4174 283.012 45.6071 283.834 45.6071ZM288.291 49.3999V45.9231L288.385 40.866L288.069 35.8405V25.9476H293V49.3999H288.291Z" fill="white"/>
</svg>
