<svg width="85" height="85" viewBox="0 0 85 85" fill="none" xmlns="http://www.w3.org/2000/svg">
<path d="M68.17 0H16.08C7.19926 0 0 7.19926 0 16.08V68.17C0 77.0507 7.19926 84.25 16.08 84.25H68.17C77.0507 84.25 84.25 77.0507 84.25 68.17V16.08C84.25 7.19926 77.0507 0 68.17 0Z" fill="#0389FF"/>
<path d="M72.6098 40.7701C72.615 42.7435 72.2766 44.7028 71.6098 46.5601C70.9763 48.3595 70.0617 50.0471 68.8998 51.5601C67.7298 53.0675 66.3645 54.4127 64.8398 55.5601C63.2927 56.7471 61.6152 57.7536 59.8398 58.5601C58.058 59.3597 56.1934 59.96 54.2798 60.3501C51.5163 60.8976 48.681 60.9821 45.8898 60.6001C44.637 60.4379 43.3995 60.1737 42.1898 59.8101C42.0498 59.8101 41.8998 59.7101 41.8898 59.5401C41.8798 59.3701 41.9998 59.2801 42.0898 59.1801C42.9226 58.3307 43.6882 57.4179 44.3798 56.4501C45.8204 54.4767 46.9658 52.3038 47.7798 50.0001C48.1809 48.8569 48.4886 47.6831 48.6998 46.4901C48.8893 45.2959 48.9895 44.0892 48.9998 42.8801C48.9998 42.6501 48.9998 42.4201 48.9998 42.1901L51.5298 43.3201C51.9021 43.4862 52.3034 43.5774 52.711 43.5884C53.1185 43.5994 53.5242 43.53 53.9049 43.3842C54.2857 43.2384 54.6339 43.0191 54.9299 42.7387C55.2258 42.4583 55.4637 42.1224 55.6298 41.7501C55.7959 41.3778 55.8871 40.9764 55.8981 40.5689C55.9091 40.1614 55.8397 39.7557 55.6939 39.3749C55.5481 38.9942 55.3288 38.6459 55.0484 38.35C54.768 38.054 54.4321 37.8162 54.0598 37.6501L51.7198 36.6501L46.9998 34.4801C46.2645 34.1582 45.4332 34.1332 44.6798 34.4101L37.3798 37.1501C36.7907 37.3722 36.2835 37.7689 35.926 38.2872C35.5686 38.8054 35.378 39.4205 35.3798 40.0501C35.3782 40.4227 35.446 40.7923 35.5798 41.1401C35.722 41.5228 35.9386 41.8735 36.2171 42.172C36.4956 42.4704 36.8305 42.7108 37.2024 42.8791C37.5743 43.0473 37.9759 43.1403 38.384 43.1525C38.792 43.1647 39.1985 43.0959 39.5798 42.9501L41.9998 42.0001C41.9998 42.0001 41.9998 42.0901 41.9998 42.1401C42.1536 43.6863 42.1065 45.246 41.8598 46.7801C41.2041 50.8187 39.1626 54.5029 36.0859 57.2C33.0092 59.8971 29.0894 61.4387 24.9998 61.5601C21.784 61.5158 18.6897 60.325 16.2739 58.202C13.8581 56.0789 12.2796 53.1632 11.8226 49.9798C11.3656 46.7963 12.0601 43.5543 13.781 40.8374C15.502 38.1205 18.1363 36.1072 21.2098 35.1601C21.3276 35.125 21.4305 35.0522 21.5028 34.9528C21.5751 34.8534 21.6127 34.733 21.6098 34.6101C21.5794 31.6415 22.505 28.742 24.2498 26.3401C25.529 24.589 27.1975 23.159 29.1238 22.1629C31.0501 21.1668 33.1814 20.6318 35.3498 20.6001H35.8698C37.7708 20.656 39.6399 21.103 41.3604 21.9134C43.0809 22.7238 44.616 23.8801 45.8698 25.3101C45.9544 25.4017 46.0667 25.4631 46.1895 25.4848C46.3124 25.5065 46.4389 25.4872 46.5498 25.4301C49.2212 23.9856 52.2206 23.2561 55.257 23.3124C58.2934 23.3686 61.2638 24.2087 63.8798 25.7512C66.4959 27.2937 68.6689 29.4861 70.188 32.1159C71.707 34.7456 72.5206 37.7233 72.5498 40.7601L72.6098 40.7701Z" fill="white"/>
</svg>
