<svg width="32" height="32" viewBox="0 0 32 32" fill="none" xmlns="http://www.w3.org/2000/svg">
<path d="M28.002 2H16.002C15.4715 2 14.9628 2.21071 14.5877 2.58579C14.2127 2.96086 14.002 3.46957 14.002 4V14H4.00195C3.47152 14 2.96281 14.2107 2.58774 14.5858C2.21267 14.9609 2.00195 15.4696 2.00195 16V30H30.002V4C30.002 3.46957 29.7912 2.96086 29.4162 2.58579C29.0411 2.21071 28.5324 2 28.002 2ZM9.00196 28V21H13.002V28H9.00196ZM28.002 28H15.002V20C15.002 19.7348 14.8966 19.4804 14.7091 19.2929C14.5215 19.1054 14.2672 19 14.002 19H8.00195C7.73674 19 7.48238 19.1054 7.29485 19.2929C7.10731 19.4804 7.00195 19.7348 7.00195 20V28H4.00195V16H16.002V4H28.002V28Z" fill="#575757"/>
<path d="M18.0039 7.99994H20.0039V9.99994H18.0039V7.99994ZM24.0039 7.99994H26.0039V9.99994H24.0039V7.99994ZM18.0039 13.9999H20.0039V15.9999H18.0039V13.9999ZM24.0039 13.9999H26.0039V15.9999H24.0039V13.9999ZM18.0039 19.9999H20.0039V21.9999H18.0039V19.9999ZM24.0039 19.9999H26.0039V21.9999H24.0039V19.9999Z" fill="#575757"/>
</svg>
