<svg width="25" height="25" viewBox="0 0 25 25" fill="none" xmlns="http://www.w3.org/2000/svg">
<path d="M11.5 13.5H6.5C6.21667 13.5 5.97934 13.404 5.788 13.212C5.59667 13.02 5.50067 12.7827 5.5 12.5C5.49934 12.2173 5.59534 11.98 5.788 11.788C5.98067 11.596 6.218 11.5 6.5 11.5H11.5V6.5C11.5 6.21667 11.596 5.97934 11.788 5.788C11.98 5.59667 12.2173 5.50067 12.5 5.5C12.7827 5.49934 13.0203 5.59534 13.213 5.788C13.4057 5.98067 13.5013 6.218 13.5 6.5V11.5H18.5C18.7833 11.5 19.021 11.596 19.213 11.788C19.405 11.98 19.5007 12.2173 19.5 12.5C19.4993 12.7827 19.4033 13.0203 19.212 13.213C19.0207 13.4057 18.7833 13.5013 18.5 13.5H13.5V18.5C13.5 18.7833 13.404 19.021 13.212 19.213C13.02 19.405 12.7827 19.5007 12.5 19.5C12.2173 19.4993 11.98 19.4033 11.788 19.212C11.596 19.0207 11.5 18.7833 11.5 18.5V13.5Z" fill="white"/>
</svg>
