<svg width="33" height="32" viewBox="0 0 33 32" fill="none" xmlns="http://www.w3.org/2000/svg">
<path d="M21.3952 27.9995V25.3328C21.3952 23.9184 20.8333 22.5618 19.8331 21.5616C18.8329 20.5614 17.4763 19.9995 16.0618 19.9995H8.06185C6.64736 19.9995 5.29081 20.5614 4.29061 21.5616C3.29042 22.5618 2.72852 23.9184 2.72852 25.3328V27.9995" stroke="#575757" stroke-width="2.25757" stroke-linecap="round" stroke-linejoin="round"/>
<path d="M12.0599 14.667C15.0054 14.667 17.3932 12.2792 17.3932 9.3337C17.3932 6.38818 15.0054 4.00037 12.0599 4.00037C9.11438 4.00037 6.72656 6.38818 6.72656 9.3337C6.72656 12.2792 9.11438 14.667 12.0599 14.667Z" stroke="#575757" stroke-width="2.25757" stroke-linecap="round" stroke-linejoin="round"/>
<path d="M29.3945 28.0004V25.3337C29.3936 24.152 29.0003 23.0041 28.2764 22.0701C27.5524 21.1362 26.5387 20.4691 25.3945 20.1737" stroke="#575757" stroke-width="2.25757" stroke-linecap="round" stroke-linejoin="round"/>
<path d="M21.3926 4.1734C22.5398 4.46714 23.5566 5.13434 24.2828 6.06981C25.0089 7.00529 25.403 8.15584 25.403 9.34007C25.403 10.5243 25.0089 11.6748 24.2828 12.6103C23.5566 13.5458 22.5398 14.213 21.3926 14.5067" stroke="#575757" stroke-width="2.25757" stroke-linecap="round" stroke-linejoin="round"/>
</svg>
