<svg width="324" height="85" viewBox="0 0 324 85" fill="none" xmlns="http://www.w3.org/2000/svg">
<path d="M68.17 0H16.08C7.19926 0 0 7.19926 0 16.08V68.17C0 77.0507 7.19926 84.25 16.08 84.25H68.17C77.0507 84.25 84.25 77.0507 84.25 68.17V16.08C84.25 7.19926 77.0507 0 68.17 0Z" fill="#0389FF"/>
<path d="M72.6098 40.7701C72.615 42.7435 72.2766 44.7028 71.6098 46.5601C70.9763 48.3595 70.0617 50.0471 68.8998 51.5601C67.7298 53.0675 66.3645 54.4127 64.8398 55.5601C63.2927 56.7471 61.6152 57.7536 59.8398 58.5601C58.058 59.3597 56.1934 59.96 54.2798 60.3501C51.5163 60.8976 48.681 60.9821 45.8898 60.6001C44.637 60.4379 43.3995 60.1737 42.1898 59.8101C42.0498 59.8101 41.8998 59.7101 41.8898 59.5401C41.8798 59.3701 41.9998 59.2801 42.0898 59.1801C42.9226 58.3307 43.6882 57.4179 44.3798 56.4501C45.8204 54.4767 46.9658 52.3038 47.7798 50.0001C48.1809 48.8569 48.4886 47.6831 48.6998 46.4901C48.8893 45.2959 48.9895 44.0892 48.9998 42.8801C48.9998 42.6501 48.9998 42.4201 48.9998 42.1901L51.5298 43.3201C51.9021 43.4862 52.3034 43.5774 52.711 43.5884C53.1185 43.5994 53.5242 43.53 53.9049 43.3842C54.2857 43.2384 54.6339 43.0191 54.9299 42.7387C55.2258 42.4583 55.4637 42.1224 55.6298 41.7501C55.7959 41.3778 55.8871 40.9764 55.8981 40.5689C55.9091 40.1614 55.8397 39.7557 55.6939 39.3749C55.5481 38.9942 55.3288 38.6459 55.0484 38.35C54.768 38.054 54.4321 37.8162 54.0598 37.6501L51.7198 36.6501L46.9998 34.4801C46.2645 34.1582 45.4332 34.1332 44.6798 34.4101L37.3798 37.1501C36.7907 37.3722 36.2835 37.7689 35.926 38.2872C35.5686 38.8054 35.378 39.4205 35.3798 40.0501C35.3782 40.4227 35.446 40.7923 35.5798 41.1401C35.722 41.5228 35.9386 41.8735 36.2171 42.172C36.4956 42.4704 36.8305 42.7108 37.2024 42.8791C37.5743 43.0473 37.9759 43.1403 38.384 43.1525C38.792 43.1647 39.1985 43.0959 39.5798 42.9501L41.9998 42.0001C41.9998 42.0001 41.9998 42.0901 41.9998 42.1401C42.1536 43.6863 42.1065 45.246 41.8598 46.7801C41.2041 50.8187 39.1626 54.5029 36.0859 57.2C33.0092 59.8971 29.0894 61.4387 24.9998 61.5601C21.784 61.5158 18.6897 60.325 16.2739 58.202C13.8581 56.0789 12.2796 53.1632 11.8226 49.9798C11.3656 46.7963 12.0601 43.5543 13.781 40.8374C15.502 38.1205 18.1363 36.1072 21.2098 35.1601C21.3276 35.125 21.4305 35.0522 21.5028 34.9528C21.5751 34.8534 21.6127 34.733 21.6098 34.6101C21.5794 31.6415 22.505 28.742 24.2498 26.3401C25.529 24.589 27.1975 23.159 29.1238 22.1629C31.0501 21.1668 33.1814 20.6318 35.3498 20.6001H35.8698C37.7708 20.656 39.6399 21.103 41.3604 21.9134C43.0809 22.7238 44.616 23.8801 45.8698 25.3101C45.9544 25.4017 46.0667 25.4631 46.1895 25.4848C46.3124 25.5065 46.4389 25.4872 46.5498 25.4301C49.2212 23.9856 52.2206 23.2561 55.257 23.3124C58.2934 23.3686 61.2638 24.2087 63.8798 25.7512C66.4959 27.2937 68.6689 29.4861 70.188 32.1159C71.707 34.7456 72.5206 37.7233 72.5498 40.7601L72.6098 40.7701Z" fill="white"/>
<path d="M103.219 54.625V34.7734H95.3898V30.16H116.709V34.7734H108.881V54.625H103.219Z" fill="white"/>
<path d="M129.949 54.625V50.9552L129.6 50.1514V43.5808C129.6 42.4158 129.238 41.5071 128.516 40.8547C127.817 40.2023 126.734 39.8761 125.266 39.8761C124.264 39.8761 123.274 40.0392 122.295 40.3654C121.34 40.6683 120.524 41.0877 119.849 41.6236L117.891 37.814C118.917 37.0917 120.151 36.5325 121.596 36.1364C123.041 35.7403 124.509 35.5423 126 35.5423C128.866 35.5423 131.091 36.218 132.675 37.5694C134.26 38.9208 135.052 41.0294 135.052 43.8953V54.625H129.949ZM124.217 54.9046C122.749 54.9046 121.491 54.66 120.443 54.1707C119.394 53.6581 118.59 52.9707 118.031 52.1086C117.472 51.2465 117.192 50.2795 117.192 49.2077C117.192 48.0893 117.46 47.1107 117.996 46.2719C118.555 45.4332 119.429 44.7808 120.617 44.3148C121.806 43.8255 123.355 43.5808 125.266 43.5808H130.264V46.7612H125.86C124.578 46.7612 123.693 46.971 123.204 47.3904C122.738 47.8097 122.505 48.334 122.505 48.9631C122.505 49.6621 122.773 50.2213 123.309 50.6407C123.868 51.0368 124.625 51.2348 125.58 51.2348C126.489 51.2348 127.305 51.0252 128.027 50.6058C128.749 50.1631 129.273 49.5223 129.6 48.6835L130.438 51.1999C130.042 52.4115 129.32 53.3318 128.271 53.9609C127.223 54.59 125.872 54.9046 124.217 54.9046Z" fill="white"/>
<path d="M139.986 54.625V28.6921H145.438V54.625H139.986Z" fill="white"/>
<path d="M159.83 54.9046C157.687 54.9046 155.799 54.4852 154.168 53.6464C152.561 52.8076 151.314 51.6659 150.429 50.2213C149.543 48.7534 149.101 47.0874 149.101 45.2234C149.101 43.3362 149.532 41.6702 150.394 40.2256C151.279 38.7577 152.479 37.616 153.994 36.8005C155.508 35.9617 157.221 35.5423 159.131 35.5423C160.972 35.5423 162.626 35.9384 164.094 36.7306C165.585 37.4995 166.762 38.6179 167.624 40.0858C168.486 41.5304 168.917 43.2663 168.917 45.2934C168.917 45.5031 168.906 45.7477 168.882 46.0273C168.859 46.2836 168.836 46.5282 168.812 46.7612H153.539V43.5808H165.946L163.849 44.5244C163.849 43.5458 163.651 42.6954 163.255 41.9731C162.859 41.2508 162.312 40.6916 161.613 40.2955C160.914 39.8761 160.098 39.6664 159.166 39.6664C158.234 39.6664 157.407 39.8761 156.685 40.2955C155.986 40.6916 155.438 41.2625 155.042 42.008C154.646 42.7304 154.448 43.5924 154.448 44.5943V45.4332C154.448 46.4584 154.669 47.367 155.112 48.1592C155.578 48.9281 156.219 49.5223 157.034 49.9417C157.873 50.3378 158.852 50.5359 159.97 50.5359C160.972 50.5359 161.846 50.3844 162.591 50.0815C163.36 49.7786 164.059 49.3242 164.688 48.7184L167.589 51.8639C166.727 52.8425 165.644 53.5998 164.339 54.1357C163.034 54.6483 161.531 54.9046 159.83 54.9046Z" fill="white"/>
<path d="M183.976 35.5423C185.467 35.5423 186.795 35.8452 187.96 36.451C189.148 37.0335 190.08 37.9422 190.756 39.1771C191.432 40.3887 191.77 41.9498 191.77 43.8604V54.625H186.317V44.6992C186.317 43.1847 185.98 42.0663 185.304 41.344C184.651 40.6217 183.719 40.2605 182.508 40.2605C181.646 40.2605 180.865 40.4469 180.166 40.8197C179.491 41.1692 178.955 41.7168 178.559 42.4624C178.186 43.208 177.999 44.1633 177.999 45.3283V54.625H172.547V35.8219H177.755V41.0294L176.776 39.4567C177.452 38.1985 178.419 37.2315 179.677 36.5558C180.935 35.8801 182.368 35.5423 183.976 35.5423Z" fill="white"/>
<path d="M204.401 54.9046C202.187 54.9046 200.463 54.3454 199.228 53.227C197.993 52.0853 197.376 50.396 197.376 48.1592V31.6628H202.828V48.0893C202.828 48.8815 203.038 49.499 203.457 49.9417C203.877 50.3611 204.447 50.5708 205.17 50.5708C206.032 50.5708 206.766 50.3378 207.372 49.8718L208.839 53.7163C208.28 54.1124 207.605 54.4153 206.812 54.625C206.043 54.8114 205.24 54.9046 204.401 54.9046ZM194.475 40.4353V36.2413H207.511V40.4353H194.475Z" fill="white"/>
<path d="M233.891 55.0444C232.003 55.0444 230.244 54.7415 228.613 54.1357C227.006 53.5066 225.607 52.6212 224.419 51.4795C223.231 50.3378 222.299 48.9981 221.623 47.4603C220.971 45.9225 220.645 44.2332 220.645 42.3925C220.645 40.5518 220.971 38.8625 221.623 37.3247C222.299 35.7869 223.231 34.4472 224.419 33.3055C225.631 32.1638 227.04 31.29 228.648 30.6842C230.256 30.0551 232.015 29.7406 233.926 29.7406C236.046 29.7406 237.956 30.1134 239.657 30.859C241.382 31.5813 242.826 32.6531 243.991 34.0744L240.356 37.4296C239.518 36.4743 238.586 35.7636 237.56 35.2976C236.535 34.8083 235.417 34.5637 234.205 34.5637C233.064 34.5637 232.015 34.7501 231.06 35.1229C230.104 35.4957 229.277 36.0316 228.578 36.7306C227.879 37.4296 227.332 38.2567 226.936 39.212C226.563 40.1673 226.376 41.2275 226.376 42.3925C226.376 43.5575 226.563 44.6176 226.936 45.5729C227.332 46.5282 227.879 47.3554 228.578 48.0544C229.277 48.7534 230.104 49.2893 231.06 49.6621C232.015 50.0349 233.064 50.2213 234.205 50.2213C235.417 50.2213 236.535 49.9883 237.56 49.5223C238.586 49.033 239.518 48.299 240.356 47.3204L243.991 50.6757C242.826 52.097 241.382 53.1804 239.657 53.926C237.956 54.6716 236.034 55.0444 233.891 55.0444Z" fill="white"/>
<path d="M247.43 54.625V28.6921H252.882V54.625H247.43Z" fill="white"/>
<path d="M266.89 54.9046C264.886 54.9046 263.103 54.4852 261.542 53.6464C260.005 52.8076 258.781 51.6659 257.873 50.2213C256.987 48.7534 256.545 47.0874 256.545 45.2234C256.545 43.3362 256.987 41.6702 257.873 40.2256C258.781 38.7577 260.005 37.616 261.542 36.8005C263.103 35.9617 264.886 35.5423 266.89 35.5423C268.87 35.5423 270.641 35.9617 272.202 36.8005C273.763 37.616 274.986 38.7461 275.872 40.1907C276.757 41.6353 277.2 43.3129 277.2 45.2234C277.2 47.0874 276.757 48.7534 275.872 50.2213C274.986 51.6659 273.763 52.8076 272.202 53.6464C270.641 54.4852 268.87 54.9046 266.89 54.9046ZM266.89 50.431C267.798 50.431 268.614 50.2213 269.336 49.8019C270.059 49.3825 270.629 48.7884 271.049 48.0195C271.468 47.2273 271.678 46.2952 271.678 45.2234C271.678 44.1283 271.468 43.1963 271.049 42.4274C270.629 41.6585 270.059 41.0644 269.336 40.645C268.614 40.2256 267.798 40.0159 266.89 40.0159C265.981 40.0159 265.166 40.2256 264.443 40.645C263.721 41.0644 263.138 41.6585 262.696 42.4274C262.276 43.1963 262.067 44.1283 262.067 45.2234C262.067 46.2952 262.276 47.2273 262.696 48.0195C263.138 48.7884 263.721 49.3825 264.443 49.8019C265.166 50.2213 265.981 50.431 266.89 50.431Z" fill="white"/>
<path d="M288.778 54.9046C287.217 54.9046 285.819 54.6017 284.584 53.9959C283.372 53.3901 282.429 52.4697 281.753 51.2348C281.077 49.9766 280.74 48.3806 280.74 46.4467V35.8219H286.192V45.6428C286.192 47.2039 286.518 48.3573 287.17 49.1029C287.846 49.8252 288.79 50.1863 290.001 50.1863C290.84 50.1863 291.586 50.0116 292.238 49.6621C292.89 49.2893 293.403 48.7301 293.776 47.9845C294.149 47.2156 294.335 46.2603 294.335 45.1186V35.8219H299.787V54.625H294.615V49.4524L295.558 50.9552C294.929 52.26 293.997 53.2503 292.762 53.926C291.551 54.5784 290.223 54.9046 288.778 54.9046Z" fill="white"/>
<path d="M312.912 54.9046C311.141 54.9046 309.545 54.5085 308.124 53.7163C306.702 52.9008 305.572 51.7707 304.733 50.3261C303.918 48.8815 303.51 47.1806 303.51 45.2234C303.51 43.243 303.918 41.5304 304.733 40.0858C305.572 38.6412 306.702 37.5228 308.124 36.7306C309.545 35.9384 311.141 35.5423 312.912 35.5423C314.496 35.5423 315.883 35.8918 317.071 36.5908C318.259 37.2898 319.179 38.3499 319.832 39.7712C320.484 41.1925 320.81 43.0099 320.81 45.2234C320.81 47.4137 320.496 49.2311 319.867 50.6757C319.238 52.097 318.329 53.1571 317.141 53.8561C315.976 54.5551 314.566 54.9046 312.912 54.9046ZM313.855 50.431C314.741 50.431 315.545 50.2213 316.267 49.8019C316.989 49.3825 317.56 48.7884 317.98 48.0195C318.422 47.2273 318.644 46.2952 318.644 45.2234C318.644 44.1283 318.422 43.1963 317.98 42.4274C317.56 41.6585 316.989 41.0644 316.267 40.645C315.545 40.2256 314.741 40.0159 313.855 40.0159C312.947 40.0159 312.131 40.2256 311.409 40.645C310.687 41.0644 310.104 41.6585 309.661 42.4274C309.242 43.1963 309.032 44.1283 309.032 45.2234C309.032 46.2952 309.242 47.2273 309.661 48.0195C310.104 48.7884 310.687 49.3825 311.409 49.8019C312.131 50.2213 312.947 50.431 313.855 50.431ZM318.783 54.625V50.7805L318.888 45.1885L318.539 39.6315V28.6921H323.991V54.625H318.783Z" fill="white"/>
</svg>
